<svg width="60" height="60" viewBox="0 0 60 60" fill="none" xmlns="http://www.w3.org/2000/svg">
<mask id="mask0" mask-type="alpha" maskUnits="userSpaceOnUse" x="34" y="35" width="8" height="21">
<path d="M34.5835 42.6161L35.8727 35.3926H41.0392C41.0392 35.3926 41.2956 38.3438 41.5601 40.3794C41.7936 42.1761 40.8954 52.1553 40.6813 54.4715C40.6499 54.8109 40.4729 55.1246 40.1844 55.3099C39.0318 56.0495 37.7353 55.6787 36.9636 55.3249C36.5477 55.1341 36.2919 54.7102 36.3075 54.2557C36.3398 53.3122 36.3752 51.4452 36.2858 48.9523C36.1534 45.275 34.5835 42.6161 34.5835 42.6161Z" fill="white"/>
</mask>
<g mask="url(#mask0)">
<path fill-rule="evenodd" clip-rule="evenodd" d="M34.5693 55.7574H41.6259V35.3628H34.5693V55.7574Z" fill="#AD2324"/>
</g>
<mask id="mask1" mask-type="alpha" maskUnits="userSpaceOnUse" x="12" y="33" width="6" height="16">
<path d="M17.9571 37.1653C17.9571 37.1653 17.48 44.7632 17.4909 47.0455C17.4928 47.3693 17.4296 47.6931 17.2743 47.9779C17.0302 48.426 16.5174 48.9228 15.445 48.9189C13.1934 48.9109 13.3954 48.0653 13.3294 47.146C13.2633 46.2269 12.7344 37.4938 12.7344 37.4938L15.3458 33.0288L17.9571 37.1653Z" fill="white"/>
</mask>
<g mask="url(#mask1)">
<path fill-rule="evenodd" clip-rule="evenodd" d="M12.731 48.9482H17.9816V33.0264H12.731V48.9482Z" fill="#AD2324"/>
</g>
<mask id="mask2" mask-type="alpha" maskUnits="userSpaceOnUse" x="5" y="3" width="46" height="56">
<path d="M44.9298 9.71854C44.9298 9.71854 48.1693 13.0673 50.2186 17.2041C52.2681 21.3409 48.8304 25.1491 47.2438 25.0179C45.6572 24.8866 41.6905 22.7854 41.6905 22.7854C41.6905 22.7854 39.6412 26.2654 40.5668 33.1601C40.5668 33.1601 41.2939 35.9835 41.0294 36.5745C40.7649 37.1654 36.6001 38.4129 36.6001 38.4129C36.6001 38.4129 34.088 42.7466 34.2201 53.7781L34.2156 57.2977C34.2153 57.6707 34.0264 58.0209 33.7078 58.2176C32.969 58.6735 31.5217 59.2723 30.0265 58.2523C29.7158 58.0404 29.5388 57.6799 29.5561 57.306C29.669 54.8577 29.9145 44.7327 26.6175 39.3322C26.6175 39.3322 21.1966 40.1859 14.5197 36.5745C14.5197 36.5745 10.2275 41.0284 10.7241 49.9991C10.7495 50.4586 10.5321 50.9025 10.138 51.1454C9.75452 51.3812 9.11993 51.7006 8.1732 51.4797C7.77133 51.386 7.44442 51.2747 7.18077 51.1612C6.57321 50.8997 6.17078 50.3173 6.12452 49.6614C5.93918 47.0239 5.49048 38.4129 6.58659 27.9071C7.90872 15.2342 13.462 16.6789 20.3371 17.4667C20.3371 17.4667 21.5272 17.6636 23.6427 18.2547C23.6427 18.2547 24.7553 17.9265 28.3638 10.1127C31.9724 2.29864 39.0462 5.38481 39.0462 5.38481L41.0955 4.00598L44.4398 3.37734C45.1937 3.23576 45.8612 3.87942 45.7411 4.63212L44.9298 9.71854Z" fill="white"/>
</mask>
<g mask="url(#mask2)">
<path fill-rule="evenodd" clip-rule="evenodd" d="M5.84131 58.8284H50.8562V3.35229H5.84131V58.8284Z" fill="#D2403C"/>
</g>
<mask id="mask3" mask-type="alpha" maskUnits="userSpaceOnUse" x="40" y="3" width="6" height="9">
<path d="M42.2276 10.5584L41.1295 11.3534C40.9425 11.4883 40.6822 11.3431 40.7017 11.1147L41.3316 3.835L41.3539 3.7777L44.6558 3.15907C45.4131 3.01749 46.0833 3.66143 45.9627 4.41496L45.148 9.50667C45.148 9.50667 45.3306 9.69498 45.6338 10.0341L42.2276 10.5584Z" fill="white"/>
</mask>
<g mask="url(#mask3)">
<path fill-rule="evenodd" clip-rule="evenodd" d="M40.6895 11.4301H45.9735V3.11865H40.6895V11.4301Z" fill="#EF5D53"/>
</g>
<mask id="mask4" mask-type="alpha" maskUnits="userSpaceOnUse" x="42" y="7" width="10" height="18">
<path d="M45.4938 7.34478L45.148 9.50664C45.148 9.50664 48.4004 12.859 50.458 17C52.5156 21.1409 49.0642 24.9531 47.4712 24.8215C47.1917 24.7984 46.8372 24.7139 46.4448 24.5912C48.936 23.3092 49.0946 19.4976 49.0946 19.4976L42.8914 14.042L42.2275 10.5584L44.2188 7.27246L45.4938 7.34478Z" fill="white"/>
</mask>
<g mask="url(#mask4)">
<path fill-rule="evenodd" clip-rule="evenodd" d="M42.1943 24.8484H51.0903V7.25757H42.1943V24.8484Z" fill="#EF5D53"/>
</g>
<mask id="mask5" mask-type="alpha" maskUnits="userSpaceOnUse" x="46" y="13" width="4" height="4">
<path d="M46.6613 13.1875C46.6613 13.1875 48.528 15.0937 49.0949 16.6055L48.268 16.934C48.268 16.934 46.4487 15.0937 46.6613 13.1875Z" fill="white"/>
</mask>
<g mask="url(#mask5)">
<path fill-rule="evenodd" clip-rule="evenodd" d="M46.6426 16.9376H49.1174V13.1658H46.6426V16.9376Z" fill="white"/>
</g>
<mask id="mask6" mask-type="alpha" maskUnits="userSpaceOnUse" x="29" y="4" width="11" height="5">
<path d="M29.1245 8.74077C32.8774 2.40235 39.2409 5.16837 39.2409 5.16837L36.3865 7.27237C36.3865 7.27237 32.8144 4.81984 29.1245 8.74077Z" fill="white"/>
</mask>
<g mask="url(#mask6)">
<path fill-rule="evenodd" clip-rule="evenodd" d="M29.1182 8.75972H39.2515V4.55396H29.1182V8.75972Z" fill="#EF5D53"/>
</g>
<mask id="mask7" mask-type="alpha" maskUnits="userSpaceOnUse" x="30" y="16" width="13" height="6">
<path d="M42.6039 18.8182C42.6039 18.8182 39.8604 17.942 37.4709 20.5711C35.0813 23.2003 30.5679 20.5711 30.5679 20.5711C30.5679 20.5711 34.9041 19.7823 36.5857 17.5912C38.2674 15.4004 42.6039 18.8182 42.6039 18.8182Z" fill="white"/>
</mask>
<g mask="url(#mask7)">
<path fill-rule="evenodd" clip-rule="evenodd" d="M30.5562 21.7441H42.6292V16.8374H30.5562V21.7441Z" fill="white"/>
</g>
<mask id="mask8" mask-type="alpha" maskUnits="userSpaceOnUse" x="30" y="15" width="6" height="2">
<path d="M35.0319 15.9886C35.0319 15.9886 34.9954 16.5271 34.8067 16.5324C34.6183 16.5379 34.1866 16.2809 34.1866 16.2809C34.1866 16.2809 34.1821 16.7913 33.7499 16.6364C33.3173 16.4815 33.2669 16.1532 33.2669 16.1532C33.2669 16.1532 33.1568 16.9693 32.4183 16.4036C32.4183 16.4036 32.1844 17.1693 31.5802 16.6784C31.5802 16.6784 31.299 17.1585 30.7441 16.7488C30.7441 16.7488 31.4063 16.6486 31.4233 16.3073C31.4233 16.3073 31.9687 16.5899 32.2293 16.0603C32.2293 16.0603 32.9216 16.5872 33.1267 15.8918C33.1267 15.8918 33.9489 16.6559 34.137 15.8506C34.137 15.8506 34.6071 16.6152 35.0319 15.9886Z" fill="white"/>
</mask>
<g mask="url(#mask8)">
<path fill-rule="evenodd" clip-rule="evenodd" d="M30.7236 16.9377H35.0378V15.8362H30.7236V16.9377Z" fill="white"/>
</g>
<mask id="mask9" mask-type="alpha" maskUnits="userSpaceOnUse" x="30" y="6" width="6" height="11">
<path d="M34.7589 6.63101L34.7586 6.63129L34.5937 10.0654L35.4568 14.0089L35.5016 15.4253C35.5016 15.4253 34.9596 14.8634 33.6982 15.1268C32.4371 15.3897 31.5754 16.3794 30.6955 16.0484C30.6955 16.0484 30.9422 14.7585 30.3302 13.3516C29.7179 11.9452 30.5676 9.27686 30.5676 9.27686L30.1607 7.79567C31.9321 6.43241 33.597 6.38456 34.7589 6.63101Z" fill="white"/>
</mask>
<g mask="url(#mask9)">
<path fill-rule="evenodd" clip-rule="evenodd" d="M30.0879 16.1366H35.5057V6.48999H30.0879V16.1366Z" fill="#F1C358"/>
</g>
<mask id="mask10" mask-type="alpha" maskUnits="userSpaceOnUse" x="30" y="4" width="8" height="4">
<path d="M37.382 4.66419V4.66446L34.76 6.63133C33.5981 6.38488 31.9318 6.43272 30.1607 7.7957C30.1607 7.7957 30.1498 7.58486 30.1367 7.30392C32.5106 4.50536 35.491 4.3724 37.382 4.66419Z" fill="white"/>
</mask>
<g mask="url(#mask10)">
<path fill-rule="evenodd" clip-rule="evenodd" d="M30.1216 7.82511H37.4123V4.55396H30.1216V7.82511Z" fill="#F0DE83"/>
</g>
<mask id="mask11" mask-type="alpha" maskUnits="userSpaceOnUse" x="34" y="6" width="2" height="11">
<path d="M34.7601 6.63135C34.7601 6.63135 34.8155 9.17817 35.4646 11.895C36.1134 14.6117 35.2581 16.0484 35.2581 16.0484C35.2581 16.0484 35.966 15.4882 34.7601 12.7873C33.5542 10.0866 34.7601 6.63135 34.7601 6.63135Z" fill="white"/>
</mask>
<g mask="url(#mask11)">
<path fill-rule="evenodd" clip-rule="evenodd" d="M34.2017 16.0698H35.7066V6.62354H34.2017V16.0698Z" fill="white"/>
</g>
<mask id="mask12" mask-type="alpha" maskUnits="userSpaceOnUse" x="29" y="7" width="3" height="10">
<path d="M30.1606 7.79565C30.1606 7.79565 31.0101 9.82121 30.5678 11.34C30.1252 12.8587 31.7079 15.2069 30.6954 16.0486C30.6954 16.0486 30.3022 13.8668 29.7713 13.1875C29.2401 12.5082 30.2849 11.1455 30.1606 7.79565Z" fill="white"/>
</mask>
<g mask="url(#mask12)">
<path fill-rule="evenodd" clip-rule="evenodd" d="M29.6196 16.0698H31.0577V7.79175H29.6196V16.0698Z" fill="white"/>
</g>
<mask id="mask13" mask-type="alpha" maskUnits="userSpaceOnUse" x="30" y="7" width="5" height="8">
<path d="M32.0641 7.49718C32.0641 7.49718 31.5109 7.92527 31.4763 8.22484C31.4763 8.22484 32.3408 7.51442 32.6867 8.22484C33.0323 8.93554 32.2369 9.62065 32.2369 10.0999C32.2369 10.5795 33.5512 9.51773 33.3784 10.8877C33.205 12.2573 32.7212 12.1889 32.7212 12.1889C32.7212 12.1889 35.2805 12.5658 34.0007 13.6957C32.7212 14.8261 32.0986 14.6206 32.0986 14.6206C32.0986 14.6206 33.5512 13.81 33.3438 13.4448C33.3438 13.4448 31.9258 15.1001 31.7185 13.6615C31.5109 12.2231 32.4099 11.7093 32.4099 11.7093C32.4099 11.7093 30.9228 11.6596 32.0986 9.62983C32.0986 9.62983 30.6115 10.2713 31.0613 8.69577C31.5109 7.12055 32.0641 7.49718 32.0641 7.49718Z" fill="white"/>
</mask>
<g mask="url(#mask13)">
<path fill-rule="evenodd" clip-rule="evenodd" d="M30.9575 14.6679H34.3687V7.45801H30.9575V14.6679Z" fill="#397490"/>
</g>
<mask id="mask14" mask-type="alpha" maskUnits="userSpaceOnUse" x="36" y="7" width="3" height="6">
<path d="M38.2824 7.79565C38.2824 7.79565 37.4265 8.82763 37.7807 9.8354C37.7807 9.8354 37.1612 10.1422 37.0282 9.3973C37.0282 9.3973 36.4237 10.7119 37.6553 11.632C37.6553 11.632 36.8072 12.5627 36.5859 11.9221C36.5859 11.9221 37.3381 11.7316 36.7629 11.0465C36.1877 10.3611 36.5859 8.74084 36.5859 8.74084C36.5859 8.74084 37.3824 9.74778 37.3824 9.00287C37.3824 8.25768 38.2824 7.79565 38.2824 7.79565Z" fill="white"/>
</mask>
<g mask="url(#mask14)">
<path fill-rule="evenodd" clip-rule="evenodd" d="M36.4424 12.1644H38.3152V7.79175H36.4424V12.1644Z" fill="white"/>
</g>
<mask id="mask15" mask-type="alpha" maskUnits="userSpaceOnUse" x="27" y="16" width="4" height="3">
<path d="M30.1083 18.0733C26.9055 19.2127 27.5145 16.0483 27.5145 16.0483C27.9127 18.4497 29.8597 17.942 30.1083 18.0733Z" fill="white"/>
</mask>
<g mask="url(#mask15)">
<path fill-rule="evenodd" clip-rule="evenodd" d="M27.4458 18.3395H30.1213V16.0364H27.4458V18.3395Z" fill="white"/>
</g>
<mask id="mask16" mask-type="alpha" maskUnits="userSpaceOnUse" x="9" y="16" width="32" height="24">
<path d="M22.4321 17.6964C22.4321 17.6964 20.0362 17.898 21.4965 19.6947C22.9566 21.4913 24.5056 22.1486 24.3286 24.2081C24.3286 24.2081 25.7887 23.3319 26.2315 24.5586C26.2315 24.5586 28.0456 23.3383 29.196 24.825C29.196 24.825 30.8334 23.5508 32.4707 25.2598C32.4707 25.2598 34.4177 24.6465 35.5018 26.2239C35.5018 26.2239 36.7629 24.953 38.0903 26.5744C38.0903 26.5744 39.8213 24.773 40.6813 26.9226C40.6813 26.9226 40.3962 30.2553 40.6813 31.1315C40.6813 31.1315 39.2706 32.367 38.2823 30.895C38.2823 30.895 36.7186 32.6739 35.5018 30.895C35.5018 30.895 33.6173 32.2271 32.6677 30.3429C32.6677 30.3429 30.9217 32.0956 29.152 30.0364C29.152 30.0364 26.8951 31.307 25.966 29.0283C25.966 29.0283 24.9479 30.2992 23.7091 28.8967C23.7091 28.8967 24.3729 31.5259 23.1338 32.1395C23.1338 32.1395 25.0368 33.9801 24.063 35.4696C24.063 35.4696 25.4855 36.0073 25.0368 37.617C25.0368 37.617 25.3904 38.7564 25.2578 39.2384C25.2578 39.2384 23.5371 39.5157 22.0079 38.9608C22.0079 38.9608 21.6735 38.0988 22.1161 37.3542C22.1161 37.3542 21.1426 36.6093 21.5408 35.5575C21.5408 35.5575 18.974 34.7687 19.9921 32.1832C19.9921 32.1832 18.1778 30.386 18.93 28.502C18.93 28.502 14.0183 28.371 14.8588 23.5947C14.8588 23.5947 11.3188 24.953 10.6553 22.1923C10.6553 22.1923 8.62274 21.4476 9.66116 18.7525C9.66116 18.7525 11.42 14.9532 22.4321 17.6964Z" fill="white"/>
</mask>
<g mask="url(#mask16)">
<path fill-rule="evenodd" clip-rule="evenodd" d="M9.35303 39.3351H40.6895V16.7041H9.35303V39.3351Z" fill="white"/>
</g>
<mask id="mask17" mask-type="alpha" maskUnits="userSpaceOnUse" x="20" y="17" width="21" height="10">
<path d="M22.4319 17.6965C22.0807 17.7605 21.7357 17.8837 21.4587 18.0807C21.328 18.1861 21.2185 18.311 21.1714 18.4559C21.1362 18.6028 21.1376 18.756 21.1984 18.9051C21.2254 18.9802 21.2491 19.0545 21.2979 19.1246C21.3436 19.1941 21.3748 19.2687 21.4305 19.3338C21.5398 19.4684 21.6332 19.5944 21.7625 19.7251C22.0055 19.9894 22.248 20.2261 22.5058 20.4726L23.29 21.2025C23.4213 21.3282 23.5492 21.4578 23.6749 21.5952C23.7992 21.7321 23.9243 21.8731 24.0355 22.0291C24.1512 22.1805 24.2523 22.3479 24.3451 22.5204C24.3867 22.6097 24.4307 22.6981 24.4697 22.7891L24.5656 23.0711C24.613 23.2625 24.6603 23.4583 24.6687 23.6542C24.6946 23.8511 24.6765 24.043 24.6751 24.2375L24.1478 23.9137C24.2055 23.8792 24.2473 23.8569 24.2966 23.8316L24.4405 23.7629C24.5377 23.7201 24.6378 23.6811 24.7414 23.6483C24.8448 23.6147 24.9541 23.5893 25.0656 23.5685C25.1801 23.5518 25.2974 23.5407 25.422 23.5459C25.4819 23.544 25.5483 23.5593 25.6113 23.5671C25.6742 23.5732 25.7389 23.5955 25.803 23.6169C25.8674 23.6355 25.9298 23.6617 25.9892 23.6987C26.048 23.7343 26.1126 23.764 26.1603 23.8119C26.2116 23.8564 26.2631 23.902 26.3102 23.9496L26.4256 24.1053C26.5031 24.2107 26.5374 24.3217 26.5911 24.4316L26.0162 24.2455C26.0956 24.1932 26.1561 24.1598 26.2258 24.1209C26.2935 24.0861 26.3607 24.0491 26.4309 24.0185C26.5686 23.9532 26.7113 23.897 26.859 23.8505C27.0058 23.803 27.1575 23.7629 27.3152 23.7395C27.3938 23.7279 27.4713 23.7123 27.5535 23.7106C27.6346 23.7078 27.7146 23.6978 27.7971 23.7028L28.0451 23.719L28.2923 23.7679C28.3756 23.7802 28.4534 23.8191 28.5337 23.8455C28.6145 23.8725 28.6925 23.905 28.7644 23.9498C28.8372 23.9918 28.9138 24.0305 28.9821 24.0781L29.1769 24.2333C29.3073 24.3368 29.4001 24.468 29.5105 24.5863L28.9511 24.5164C29.0434 24.4489 29.1092 24.4091 29.1889 24.364C29.2652 24.3203 29.3435 24.282 29.4227 24.2458C29.5804 24.1732 29.746 24.1167 29.9154 24.0717C30.0013 24.0536 30.0868 24.0327 30.1741 24.0183L30.438 23.9891L30.7052 23.9879C30.7941 23.9913 30.8828 24.0057 30.9714 24.0152C31.0609 24.0216 31.1459 24.0494 31.2325 24.0694C31.3189 24.09 31.4053 24.1117 31.4859 24.1476L31.7303 24.2461L31.9577 24.3724C32.1143 24.4514 32.2358 24.569 32.3746 24.6672C32.441 24.7192 32.4967 24.7801 32.558 24.8366L32.7369 25.0096L32.359 24.9134C32.4543 24.8867 32.5243 24.8725 32.6046 24.8569C32.6823 24.843 32.7603 24.8305 32.8381 24.8219C32.9936 24.8021 33.1502 24.7946 33.3071 24.794C33.3855 24.7921 33.4646 24.7999 33.5432 24.8024C33.6218 24.8041 33.7007 24.8191 33.7793 24.8274C33.9359 24.8494 34.0936 24.88 34.2466 24.9287C34.3224 24.9548 34.4007 24.9729 34.4743 25.0063L34.695 25.1056C34.7667 25.1423 34.8347 25.1868 34.9041 25.2277C34.9751 25.2666 35.0392 25.3148 35.1017 25.3657C35.1638 25.4163 35.2304 25.4625 35.2878 25.5178L35.4548 25.6886C35.5671 25.8015 35.649 25.9362 35.7457 26.0594L35.2909 26.0191C35.3581 25.957 35.4088 25.9189 35.4693 25.8753C35.5278 25.8338 35.588 25.7954 35.6501 25.7601C35.7733 25.6881 35.9063 25.6308 36.0428 25.5837C36.1816 25.539 36.3265 25.5128 36.4731 25.5L36.6941 25.4989L36.9129 25.5295C36.9851 25.5409 37.0531 25.5682 37.123 25.5879C37.1938 25.606 37.2577 25.6374 37.3212 25.6694C37.3833 25.7028 37.4525 25.7267 37.5076 25.7687L37.6788 25.8867C37.7381 25.9234 37.783 25.9734 37.8343 26.0179L37.9823 26.1548L38.2373 26.4563L37.953 26.4452C38.0673 26.3389 38.1793 26.2563 38.2997 26.1723C38.4201 26.0917 38.5441 26.0157 38.6773 25.9534C38.7439 25.9223 38.8086 25.8889 38.8799 25.8669C38.9504 25.8433 39.0179 25.8143 39.0929 25.8015C39.167 25.7876 39.2378 25.7648 39.315 25.7662C39.3913 25.7668 39.4655 25.7498 39.5416 25.7676C39.6165 25.7829 39.694 25.781 39.7642 25.8127C39.8336 25.8422 39.9072 25.863 39.971 25.9011L40.1519 26.0282C40.206 26.0764 40.2511 26.1334 40.2991 26.186C40.3503 26.2369 40.3882 26.2964 40.4217 26.3584L40.5281 26.5392C40.5828 26.6666 40.6304 26.7962 40.6811 26.9228C40.6126 26.8032 40.5479 26.683 40.4777 26.5679L40.3517 26.4093C40.3119 26.3548 40.269 26.3042 40.2149 26.2647C40.1636 26.2235 40.1182 26.1757 40.0652 26.1387L39.8963 26.0472C39.8389 26.021 39.7754 26.0127 39.7166 25.994C39.6578 25.9734 39.5917 25.9854 39.5312 25.9784C39.4705 25.9695 39.4072 25.9935 39.3465 25.999C39.2849 26.0035 39.2252 26.0327 39.1653 26.0488C39.1043 26.0638 39.0474 26.0961 38.9895 26.1217C38.9307 26.1456 38.876 26.1812 38.8206 26.2135C38.7097 26.2791 38.6051 26.3576 38.5048 26.4399C38.407 26.5225 38.3061 26.6149 38.2275 26.7036L38.0999 26.8485L37.943 26.6925L37.6952 26.446L37.5609 26.3403C37.5154 26.307 37.4742 26.2658 37.4243 26.2416L37.2813 26.1579C37.2354 26.1264 37.1818 26.1159 37.1334 26.0933C37.084 26.0727 37.0347 26.0513 36.9831 26.0444C36.9319 26.0352 36.8822 26.0166 36.8307 26.0135L36.6774 26.0035L36.525 26.016C36.4238 26.033 36.3251 26.0605 36.2273 26.0964C36.1312 26.1364 36.0364 26.1826 35.9481 26.2416C35.9032 26.2702 35.8603 26.3008 35.8193 26.3339C35.7803 26.3645 35.7349 26.4051 35.712 26.4288L35.4977 26.6513L35.2575 26.3885C35.1725 26.2958 35.1031 26.189 35.0097 26.1072L34.8737 25.9818C34.8277 25.9409 34.7736 25.9106 34.7249 25.8739C34.6761 25.8371 34.6257 25.8029 34.5696 25.7773C34.515 25.7501 34.4632 25.7184 34.4072 25.6939L34.2358 25.6277C34.1797 25.604 34.1179 25.5932 34.0596 25.5746C33.9417 25.5409 33.8177 25.5212 33.6934 25.5078C33.6307 25.5039 33.5694 25.4928 33.5056 25.4942C33.4423 25.4947 33.3793 25.4894 33.3158 25.4933C33.1893 25.4981 33.0619 25.5084 32.9362 25.5287C32.8732 25.5376 32.8113 25.5498 32.7498 25.5629C32.6915 25.5757 32.6229 25.5935 32.5817 25.6066L32.3822 25.67L32.2041 25.5103L32.0525 25.3743C32.0012 25.3303 31.9538 25.2797 31.9 25.241L31.7373 25.127C31.6846 25.0858 31.6291 25.0516 31.5712 25.0235L31.4014 24.9306L31.2239 24.8625C31.1662 24.8358 31.1049 24.8224 31.0439 24.8091C30.9828 24.7963 30.9232 24.7743 30.8605 24.7729C30.7986 24.7679 30.737 24.7568 30.6746 24.7551L30.4876 24.7576L30.3003 24.7807C30.2382 24.7918 30.1766 24.8085 30.1147 24.8213C29.9921 24.8555 29.8706 24.8981 29.7541 24.9534C29.6958 24.9807 29.6387 25.0091 29.5841 25.0419C29.5322 25.0708 29.4703 25.112 29.4405 25.1334L29.1627 25.3367L28.8815 25.0639C28.8015 24.9863 28.7354 24.8889 28.6496 24.8238L28.5253 24.7206C28.4818 24.6897 28.4339 24.668 28.3893 24.6399C28.3455 24.6096 28.297 24.5899 28.2469 24.5735C28.1967 24.5582 28.1516 24.5287 28.0978 24.5231L27.9414 24.4895L27.7778 24.4772C27.7232 24.4722 27.6658 24.4808 27.6098 24.4811C27.554 24.4806 27.4961 24.4928 27.4389 24.5003C27.325 24.5151 27.2087 24.5443 27.0947 24.5804C26.9799 24.6146 26.8657 24.6583 26.7553 24.7092C26.699 24.7329 26.646 24.7618 26.5914 24.7885C26.541 24.816 26.4813 24.8494 26.4459 24.8722L26.102 25.0917L25.871 24.6861C25.8392 24.6305 25.8211 24.5573 25.7857 24.5125C25.7693 24.4889 25.7537 24.4647 25.7386 24.4394C25.7194 24.4216 25.7002 24.4052 25.6826 24.3857C25.6676 24.3629 25.6414 24.3579 25.6216 24.3423C25.6026 24.3262 25.5789 24.3153 25.5524 24.3084C25.5274 24.2995 25.5042 24.2861 25.473 24.2842C25.4424 24.2814 25.4167 24.2689 25.3822 24.2706C25.3181 24.2653 25.2478 24.2694 25.1754 24.2769C25.1015 24.2889 25.0266 24.3025 24.9502 24.3248C24.8741 24.3462 24.7969 24.3732 24.7214 24.4038L24.6091 24.4525C24.574 24.4692 24.5324 24.49 24.5087 24.5031L23.965 24.8004L23.9817 24.1788C23.9859 24.0194 24.009 23.8564 23.9918 23.7C23.9898 23.5409 23.9603 23.388 23.9324 23.2339L23.8697 23.008L23.7813 22.7882C23.7136 22.6444 23.6392 22.5017 23.5453 22.3652C23.4583 22.2264 23.353 22.094 23.2454 21.9618C23.1381 21.8294 23.0202 21.7015 22.9046 21.5707L22.1794 20.7869C21.942 20.5218 21.6906 20.2439 21.4799 19.9594C21.3698 19.8256 21.263 19.657 21.1633 19.5037C21.1109 19.4275 21.0774 19.3332 21.0348 19.2492C20.9888 19.1666 20.9651 19.0698 20.9417 18.9741C20.8851 18.7875 20.9038 18.5691 20.9782 18.3819C21.0657 18.1933 21.2193 18.0609 21.3784 17.9608C21.7104 17.7794 22.0746 17.7149 22.4319 17.6965Z" fill="white"/>
</mask>
<g mask="url(#mask17)">
<path fill-rule="evenodd" clip-rule="evenodd" d="M20.8911 26.9513H40.6896V17.6719H20.8911V26.9513Z" fill="#4CA32B"/>
</g>
<mask id="mask18" mask-type="alpha" maskUnits="userSpaceOnUse" x="9" y="18" width="14" height="21">
<path d="M22.0077 38.961C21.8996 38.7051 21.8402 38.4263 21.8338 38.1418C21.8288 37.9994 21.8466 37.8558 21.877 37.7143C21.9049 37.5713 21.9629 37.4355 22.0267 37.302L22.0523 37.4353C21.9748 37.3782 21.9099 37.3229 21.8455 37.2597C21.7809 37.1983 21.7207 37.1321 21.6647 37.062C21.6095 36.9916 21.5562 36.9182 21.5105 36.84C21.4629 36.7627 21.4214 36.6801 21.3874 36.5947C21.3506 36.5098 21.3258 36.4197 21.3032 36.3285C21.292 36.2831 21.2884 36.2361 21.2809 36.1891C21.2725 36.1427 21.2695 36.0956 21.2703 36.0481C21.2647 35.9529 21.2737 35.8587 21.2879 35.7644C21.2979 35.6692 21.3305 35.5805 21.3531 35.4879L21.4813 35.7471C21.3796 35.7168 21.2959 35.6848 21.2068 35.6489C21.1198 35.6122 21.0334 35.5741 20.9498 35.5299C20.8645 35.4893 20.7843 35.4389 20.7023 35.3905C20.6196 35.3438 20.5451 35.2834 20.466 35.2297C20.388 35.1744 20.3177 35.1071 20.2433 35.0456C20.1703 34.9827 20.1079 34.9065 20.0396 34.8364C19.9696 34.7683 19.9197 34.6812 19.8593 34.6033C19.7963 34.5263 19.7553 34.435 19.7088 34.3466L19.6405 34.2133L19.5926 34.0718C19.5647 33.9763 19.5198 33.8834 19.5103 33.7844L19.4635 33.489C19.4574 33.3908 19.4607 33.2926 19.4599 33.1942L19.4607 33.0459L19.4814 32.9024L19.5257 32.6148C19.5421 32.5193 19.5764 32.4312 19.6015 32.3388L19.6837 32.0646L19.7578 32.415C19.6834 32.3419 19.6257 32.2801 19.5644 32.2109C19.5059 32.1427 19.4468 32.0746 19.3919 32.0036C19.2796 31.8634 19.1751 31.7177 19.0775 31.5664C18.9797 31.4156 18.8863 31.2607 18.8064 31.0974C18.7665 31.0153 18.7216 30.9363 18.689 30.8501C18.6545 30.7656 18.6171 30.6813 18.5851 30.595L18.5004 30.3302C18.4714 30.2423 18.4574 30.1483 18.4357 30.0574C18.4128 29.9664 18.3992 29.8732 18.3917 29.7781C18.3847 29.6832 18.3657 29.5898 18.3696 29.4935L18.3772 29.2056C18.3822 29.1099 18.4042 29.0151 18.4179 28.9194C18.431 28.8234 18.4505 28.7291 18.4831 28.6379L18.5706 28.3617L18.9195 28.8846C18.7325 28.8774 18.5789 28.8596 18.412 28.8374C18.2487 28.8148 18.0868 28.7848 17.9257 28.7508C17.6043 28.6802 17.2866 28.5856 16.977 28.4627C16.3583 28.2198 15.7714 27.8413 15.3146 27.3236C15.2042 27.1918 15.0964 27.0574 15.0047 26.9111C14.9094 26.7681 14.8269 26.616 14.7558 26.4608C14.6817 26.3055 14.624 26.1453 14.5727 25.9829C14.5264 25.8204 14.4824 25.656 14.4562 25.4905C14.4295 25.325 14.4088 25.1593 14.4035 24.9937C14.3879 24.8277 14.398 24.6641 14.3994 24.5C14.403 24.3362 14.425 24.1751 14.4378 24.013L14.5119 23.5351L14.986 23.9198C14.8664 23.9623 14.765 23.9921 14.6546 24.023C14.5462 24.0527 14.4381 24.08 14.3286 24.1039C14.1098 24.1526 13.8885 24.1907 13.6642 24.2124C13.216 24.2569 12.7539 24.2558 12.2955 24.1518C11.8409 24.0527 11.3814 23.8341 11.0556 23.4758C10.9708 23.3899 10.9012 23.2931 10.8318 23.1968C10.7719 23.0959 10.7058 22.9971 10.6615 22.8897C10.6094 22.7854 10.5712 22.6772 10.5352 22.569C10.4971 22.4611 10.4773 22.3504 10.448 22.2414L10.5809 22.3902C10.4809 22.3459 10.4062 22.3045 10.3271 22.2539C10.2482 22.2063 10.1763 22.1493 10.1044 22.0942C10.0369 22.033 9.96587 21.9763 9.90511 21.9087C9.84408 21.8416 9.77998 21.7782 9.7287 21.7028C9.67379 21.6311 9.62056 21.5588 9.57876 21.4789C9.53277 21.4016 9.48846 21.324 9.45753 21.24C9.42436 21.1571 9.38479 21.077 9.36667 20.9899C9.34605 20.904 9.31567 20.8202 9.3048 20.7332L9.27554 20.4731C9.26801 20.3866 9.27665 20.2998 9.27665 20.2139C9.27693 20.1276 9.28 20.0422 9.29672 19.9579L9.33546 19.7057C9.348 19.6217 9.37893 19.5415 9.40012 19.46L9.47118 19.2178L9.66097 18.7527L9.5364 19.2358L9.49961 19.4806C9.48986 19.5624 9.47146 19.6425 9.46784 19.7243L9.45808 19.9685C9.45112 20.0495 9.45753 20.1299 9.46645 20.2102C9.47564 20.2901 9.4762 20.3707 9.49209 20.4489L9.54532 20.6806C9.56371 20.7571 9.59771 20.8291 9.62224 20.9029C9.64453 20.978 9.68745 21.0447 9.72229 21.1134C9.75489 21.1841 9.80004 21.2469 9.84547 21.3092C9.887 21.3746 9.93883 21.4319 9.99095 21.4884C10.0394 21.5482 10.0996 21.5969 10.1562 21.6489C10.212 21.7012 10.2774 21.7426 10.3379 21.7888C10.4034 21.8288 10.4664 21.8717 10.5341 21.9062C10.5977 21.9423 10.6743 21.9752 10.7289 21.9949L10.8206 22.0283L10.8622 22.144C10.895 22.2358 10.9184 22.3318 10.958 22.4199C10.9948 22.5092 11.0335 22.5974 11.0823 22.6783C11.1241 22.764 11.1835 22.8366 11.2356 22.9134C11.2961 22.9838 11.354 23.0555 11.4234 23.1153C11.6915 23.364 12.0371 23.5162 12.4134 23.5776C12.7888 23.643 13.1876 23.6263 13.5808 23.566C13.7773 23.5348 13.9741 23.495 14.1689 23.4455C14.2659 23.421 14.3626 23.3935 14.4579 23.364C14.5512 23.3351 14.6518 23.3009 14.7316 23.2697L15.2795 23.0555L15.1521 24.0872C15.1465 24.231 15.1306 24.3751 15.1323 24.5178C15.1362 24.6597 15.1309 24.8032 15.1496 24.9426C15.158 25.0839 15.1803 25.2216 15.2067 25.3581C15.2293 25.495 15.2675 25.6277 15.3059 25.759C15.3489 25.8891 15.396 26.0168 15.4559 26.1386C15.5139 26.261 15.5796 26.3801 15.6557 26.4914C15.7284 26.6057 15.8154 26.71 15.9026 26.8135C15.9952 26.9133 16.0916 27.0093 16.1964 27.0986C16.3017 27.1862 16.411 27.2705 16.528 27.3461C16.7602 27.4983 17.0124 27.6274 17.2755 27.7361C17.5391 27.8443 17.8153 27.93 18.0974 27.9951C18.2387 28.0262 18.3811 28.0546 18.524 28.0755C18.6634 28.0963 18.8181 28.1139 18.9401 28.12L19.449 28.1445L19.2891 28.6429L19.2233 28.8476C19.1965 28.915 19.182 28.9851 19.1726 29.0563C19.1628 29.1269 19.1433 29.1967 19.1391 29.2685L19.131 29.4849C19.1241 29.557 19.1388 29.6304 19.1414 29.7033C19.1439 29.7764 19.1519 29.8499 19.1687 29.9227C19.1843 29.9956 19.191 30.0699 19.213 30.1422L19.2751 30.3606L19.3551 30.5756C19.3794 30.6482 19.4167 30.7174 19.4476 30.7881C19.5112 30.9294 19.5881 31.0665 19.6695 31.2009C19.7503 31.3358 19.8389 31.4673 19.9337 31.5936C19.9797 31.6582 20.0298 31.7191 20.0789 31.7806C20.1279 31.8392 20.1817 31.9041 20.2258 31.9516L20.369 32.1071L20.2999 32.3024L20.2199 32.5299C20.1951 32.6059 20.1597 32.6812 20.143 32.758L20.0953 32.9894L20.0711 33.1054L20.0658 33.2206C20.063 33.2974 20.0546 33.3752 20.0546 33.452L20.0794 33.679C20.0803 33.7569 20.1143 33.8261 20.1304 33.9001L20.1597 34.0103L20.2076 34.1143C20.2402 34.183 20.2653 34.2565 20.3108 34.3196C20.3548 34.3833 20.386 34.4556 20.4395 34.514C20.4911 34.5736 20.5351 34.6395 20.5922 34.6957C20.6508 34.7505 20.7034 34.8111 20.7661 34.8626C20.8305 34.9121 20.8893 34.9688 20.9579 35.0139C21.0256 35.0606 21.0914 35.1098 21.1638 35.1499C21.2338 35.1944 21.3071 35.2325 21.3807 35.2706C21.4531 35.3062 21.5331 35.3427 21.6 35.368L21.7848 35.4389L21.7282 35.6272C21.7073 35.6968 21.6719 35.7641 21.6591 35.8358C21.6412 35.9068 21.627 35.9785 21.6251 36.052C21.6203 36.0884 21.6192 36.1251 21.6229 36.1618C21.6256 36.1983 21.624 36.2358 21.6298 36.2723C21.6412 36.346 21.6538 36.4197 21.6775 36.492C21.6989 36.5646 21.7268 36.6367 21.7614 36.7062C21.794 36.7763 21.8338 36.8442 21.8765 36.9101C21.9202 36.9755 21.9668 37.0406 22.018 37.1015C22.0677 37.1627 22.1256 37.2236 22.1791 37.2728L22.248 37.3365L22.2053 37.4063C22.1373 37.5162 22.0713 37.6305 22.032 37.7571C21.9888 37.882 21.9598 38.013 21.9459 38.1468C21.9152 38.4149 21.9353 38.6934 22.0077 38.961Z" fill="white"/>
</mask>
<g mask="url(#mask18)">
<path fill-rule="evenodd" clip-rule="evenodd" d="M9.25293 38.968H22.2624V18.7402H9.25293V38.968Z" fill="#4CA32B"/>
</g>
<mask id="mask19" mask-type="alpha" maskUnits="userSpaceOnUse" x="22" y="27" width="19" height="13">
<path d="M40.6814 31.1315C40.5975 31.2114 40.5047 31.2829 40.408 31.3479C40.3119 31.4147 40.2099 31.4734 40.1026 31.5237C39.9958 31.5744 39.8844 31.6191 39.7667 31.6464C39.7085 31.6637 39.6491 31.6748 39.5881 31.6798C39.5271 31.6876 39.4663 31.6968 39.4044 31.6917C39.3431 31.687 39.2799 31.6951 39.2191 31.6792C39.1584 31.6673 39.0962 31.657 39.0352 31.642L38.8593 31.5744C38.7983 31.5549 38.7506 31.514 38.6954 31.484C38.6417 31.4511 38.5854 31.4205 38.5413 31.3771L38.4014 31.2539C38.3529 31.2136 38.32 31.1624 38.2785 31.1168L38.1601 30.9752L38.3925 30.9899C38.2936 31.1073 38.1935 31.2036 38.084 31.3009C37.9745 31.3958 37.8605 31.4873 37.7345 31.5655C37.6732 31.6066 37.6099 31.6456 37.5419 31.6784C37.4756 31.7134 37.409 31.7488 37.3357 31.7735C37.2635 31.7999 37.1933 31.8314 37.1152 31.8447C37.0378 31.8586 36.9636 31.887 36.8822 31.8873C36.8023 31.8898 36.7214 31.9015 36.6409 31.8945L36.3976 31.862C36.3198 31.8389 36.2432 31.8111 36.1657 31.7841C36.0849 31.7624 36.0236 31.7109 35.952 31.6737C35.8826 31.6331 35.8109 31.5938 35.7558 31.5399L35.5791 31.3863C35.5194 31.3354 35.4782 31.2737 35.4272 31.2172L35.2814 31.0425L35.656 31.1093C35.5838 31.161 35.5242 31.1983 35.4578 31.2392C35.3912 31.2753 35.326 31.3148 35.2572 31.3471C35.1215 31.415 34.9807 31.4756 34.8324 31.5221C34.7597 31.5488 34.6842 31.5688 34.607 31.5858C34.5309 31.6064 34.4531 31.6208 34.3723 31.6289C34.2929 31.64 34.2129 31.6506 34.1299 31.6475C34.0471 31.6453 33.9651 31.6536 33.8815 31.6369C33.7988 31.6228 33.7138 31.6172 33.6324 31.593L33.3888 31.5129C33.3122 31.4765 33.238 31.4339 33.1628 31.393C33.0839 31.356 33.0254 31.2965 32.9585 31.2456C32.895 31.1916 32.8236 31.1421 32.7748 31.0781L32.6154 30.8932C32.5591 30.8322 32.5282 30.7619 32.4839 30.6959L32.3615 30.4943L32.9111 30.5808C32.8292 30.6612 32.7637 30.7154 32.6876 30.7758C32.6135 30.8333 32.5377 30.8884 32.4582 30.9388C32.3022 31.0425 32.1327 31.1279 31.9574 31.2041C31.8682 31.2392 31.7757 31.2689 31.6849 31.3004C31.5909 31.3257 31.4945 31.3452 31.3992 31.3666C31.3022 31.383 31.2024 31.388 31.1038 31.3977C31.0051 31.4083 30.9048 31.3936 30.805 31.3911C30.7041 31.3908 30.6077 31.366 30.5096 31.3465C30.4115 31.3274 30.3134 31.3065 30.2231 31.267C30.132 31.2317 30.0369 31.1994 29.9486 31.1588L29.6978 31.0141C29.6108 30.9685 29.537 30.9107 29.4642 30.852L29.2432 30.6762C29.1094 30.5499 28.9851 30.4158 28.8569 30.2848L29.343 30.3694C29.2466 30.4222 29.1724 30.4548 29.0877 30.4932C29.0044 30.5263 28.9216 30.5619 28.8363 30.5891C28.6674 30.6492 28.4924 30.6951 28.3121 30.7276C28.2235 30.7477 28.1304 30.7552 28.0381 30.7646C27.9464 30.7774 27.8517 30.7766 27.7567 30.7758C27.6625 30.7785 27.5669 30.771 27.4704 30.7555C27.3743 30.7438 27.2787 30.7315 27.1842 30.6998C27.0906 30.6698 26.9919 30.6545 26.9038 30.6066C26.8147 30.5641 26.7224 30.5249 26.6371 30.4754L26.3969 30.3029C26.3144 30.2475 26.2573 30.1699 26.1876 30.1035C26.1207 30.0342 26.051 29.9658 26.0031 29.887L25.8456 29.6565C25.791 29.5802 25.762 29.4962 25.7194 29.4164L25.6029 29.1736L26.272 29.2693C26.213 29.3391 26.1723 29.3783 26.121 29.427C26.0714 29.4723 26.0207 29.516 25.9672 29.5563C25.8618 29.6389 25.7439 29.7087 25.6207 29.7716L25.4254 29.8514L25.2166 29.9079L24.9987 29.9349C24.9254 29.9368 24.8513 29.9321 24.778 29.9293C24.7044 29.9268 24.6347 29.9054 24.5631 29.8929C24.4901 29.8809 24.4249 29.8556 24.3594 29.8297C24.2955 29.8025 24.2236 29.7833 24.1682 29.7466L23.9932 29.6448C23.9321 29.6128 23.8872 29.5688 23.8351 29.5296L23.6852 29.4078L23.428 29.1405L24.0712 28.8072C24.1085 28.9697 24.1319 29.114 24.157 29.2679C24.1799 29.4192 24.1974 29.5716 24.2125 29.7243C24.2242 29.8781 24.2353 30.0317 24.2367 30.1872C24.2404 30.3424 24.2362 30.4993 24.2242 30.6573C24.2142 30.815 24.191 30.9747 24.159 31.1354C24.1467 31.215 24.1169 31.2962 24.0963 31.3763C24.0768 31.457 24.0442 31.5371 24.0076 31.6169C23.9734 31.6968 23.9399 31.776 23.8853 31.8514C23.8315 31.926 23.7956 32.0077 23.7231 32.0725C23.6554 32.1385 23.5955 32.2119 23.5177 32.2664C23.4377 32.319 23.3561 32.3696 23.2741 32.418L23.3533 31.9168C23.4188 31.9844 23.4698 32.0431 23.5249 32.1068C23.5779 32.1705 23.6314 32.2328 23.6813 32.2981C23.7822 32.428 23.8781 32.5613 23.9672 32.6995C24.0581 32.8366 24.1389 32.9813 24.2172 33.127C24.2905 33.2767 24.3621 33.4269 24.4162 33.5874C24.448 33.6647 24.4678 33.7482 24.4895 33.8302C24.5121 33.9123 24.5344 33.9938 24.5439 34.0803C24.5539 34.1663 24.5734 34.2497 24.5745 34.3368L24.5762 34.5982C24.5692 34.6853 24.5519 34.7729 24.5397 34.8594C24.5316 34.9468 24.4962 35.0294 24.4689 35.1131C24.4402 35.196 24.4151 35.2806 24.3666 35.3543L24.237 35.5812L24.1367 35.2778C24.2047 35.3075 24.2532 35.334 24.307 35.3651C24.3594 35.3952 24.4095 35.428 24.458 35.463C24.5558 35.5317 24.6456 35.611 24.7309 35.6942C24.8145 35.7799 24.8897 35.8722 24.958 35.9704L25.0494 36.1245C25.0798 36.1754 25.0993 36.2327 25.1238 36.2864C25.1503 36.3403 25.1653 36.3976 25.1812 36.4547C25.1966 36.5117 25.2163 36.5679 25.2214 36.6263L25.2459 36.8004L25.2473 36.9743C25.2542 37.0905 25.2241 37.2021 25.2124 37.3153C25.2046 37.3712 25.1851 37.4249 25.1718 37.4794L25.128 37.6421L25.1272 37.5896C25.1932 37.8624 25.2484 38.1334 25.2799 38.4104C25.2966 38.5484 25.3061 38.6877 25.3072 38.8268C25.3072 38.9651 25.3008 39.1066 25.2579 39.2385C25.2843 39.1027 25.2732 38.9648 25.2565 38.8299C25.2386 38.6944 25.2127 38.5603 25.1796 38.4279C25.1141 38.1634 25.0371 37.8991 24.9455 37.6446L24.939 37.6268L24.9446 37.5918L24.97 37.4377C24.9767 37.3868 24.9898 37.3359 24.9914 37.2847C24.9909 37.1823 25.0084 37.08 24.9923 36.9801L24.9783 36.8307L24.9452 36.6858C24.9376 36.6366 24.9159 36.5918 24.8995 36.5456C24.8822 36.4997 24.8669 36.4536 24.8409 36.4118C24.8161 36.3696 24.798 36.3242 24.769 36.2847L24.6846 36.1659C24.6219 36.0908 24.5544 36.021 24.4803 35.9565C24.4045 35.8945 24.3259 35.8358 24.2412 35.7863C24.1985 35.7612 24.1562 35.7376 24.113 35.7162C24.0712 35.6947 24.0219 35.6733 23.989 35.6616L23.7791 35.5865L23.8889 35.3584L23.9775 35.1729C24.0129 35.1139 24.026 35.0469 24.0433 34.9818C24.0595 34.9164 24.0851 34.8539 24.0846 34.7849C24.0887 34.7173 24.0988 34.6511 24.0999 34.5835L24.0848 34.3799C24.0801 34.312 24.0578 34.2439 24.0458 34.1765C24.0352 34.1084 24.011 34.0416 23.9879 33.9752C23.965 33.9087 23.9455 33.8416 23.9129 33.7768C23.8585 33.6455 23.7922 33.5173 23.7223 33.3907C23.6467 33.2661 23.5701 33.1421 23.4831 33.0236C23.3979 32.9042 23.3059 32.7885 23.21 32.6764C23.1629 32.62 23.1119 32.5666 23.0629 32.5126C23.0135 32.4606 22.9592 32.4044 22.9138 32.3624L22.6562 32.1226L22.9929 31.8609C23.0344 31.8289 23.076 31.7991 23.1192 31.7713C23.1607 31.7413 23.1891 31.6931 23.2267 31.6575C23.2672 31.6253 23.2847 31.5643 23.3162 31.5201C23.3483 31.4762 23.3678 31.4186 23.3881 31.3627C23.4107 31.3082 23.4335 31.2534 23.4455 31.1902C23.4583 31.1285 23.4801 31.0715 23.4876 31.0064C23.5088 30.879 23.5244 30.7491 23.5288 30.6147C23.5353 30.4815 23.5353 30.3455 23.528 30.2092C23.523 30.0723 23.5085 29.9349 23.4946 29.7975C23.4767 29.6598 23.4569 29.5227 23.4324 29.3855C23.4071 29.2515 23.3786 29.1082 23.3463 28.9866L23.0063 27.6885L23.9901 28.6534L24.1927 28.8523L24.3006 28.9332C24.3368 28.958 24.3697 28.9939 24.4076 29.0103L24.5171 29.0726C24.5525 29.0979 24.5907 29.1018 24.6272 29.1185C24.6634 29.1332 24.6999 29.1488 24.7364 29.1516C24.7732 29.156 24.8092 29.1711 24.8454 29.17L24.9538 29.1725C24.9898 29.1661 25.026 29.1613 25.0622 29.158L25.1709 29.1271L25.2791 29.0818C25.3498 29.0434 25.4212 29.0017 25.4875 28.9483C25.5212 28.9229 25.553 28.8949 25.5837 28.8659C25.6118 28.8398 25.6478 28.8011 25.6592 28.7875L26.0491 28.3252L26.3283 28.8832L26.4217 29.0704C26.4549 29.1305 26.4777 29.2008 26.5187 29.2531L26.6335 29.4172C26.6675 29.4765 26.716 29.5182 26.7609 29.5633C26.808 29.6053 26.8448 29.6629 26.8983 29.6937L27.0493 29.8014L27.2146 29.8823C27.2664 29.9157 27.3319 29.9207 27.3896 29.9421C27.4479 29.9647 27.5117 29.9719 27.5752 29.98C27.6379 29.9916 27.7026 29.998 27.7695 29.9953C27.8355 29.9969 27.9016 29.9994 27.9699 29.9894C28.0373 29.983 28.105 29.98 28.1736 29.9641C28.3096 29.9413 28.4473 29.9068 28.5816 29.8601C28.6496 29.8398 28.7145 29.8117 28.7809 29.7864C28.843 29.7594 28.9155 29.7266 28.9603 29.7026L29.2243 29.5624L29.4467 29.7877C29.552 29.8946 29.6535 30.0075 29.7602 30.1115L29.9308 30.2487C29.9871 30.2962 30.0436 30.3427 30.1066 30.3738L30.2892 30.4829C30.3516 30.5126 30.4162 30.5352 30.4798 30.563C30.5422 30.5947 30.6088 30.6086 30.6749 30.6231C30.7409 30.6381 30.8061 30.6606 30.8741 30.6601C30.9419 30.6617 31.009 30.6779 31.0776 30.6709C31.1459 30.6645 31.2144 30.6653 31.2827 30.6556L31.4884 30.6144L31.6913 30.5491C31.8248 30.4948 31.9571 30.4339 32.082 30.3555C32.1455 30.3182 32.206 30.2767 32.2651 30.2334C32.3217 30.1919 32.3852 30.1399 32.424 30.1048L32.752 29.8078L33.0641 30.3477C33.0959 30.3972 33.1182 30.4581 33.1575 30.4993L33.264 30.6347C33.296 30.6854 33.3423 30.7146 33.3824 30.7532C33.4242 30.7877 33.4607 30.8342 33.5098 30.8564L33.6486 30.9404L33.8002 30.998C33.8509 31.0172 33.9077 31.0205 33.9612 31.0342C34.0145 31.05 34.0738 31.0442 34.1307 31.0495C34.1873 31.0556 34.2464 31.0498 34.3052 31.0442C34.3642 31.042 34.4236 31.0336 34.4835 31.02C34.5434 31.0103 34.6034 30.9975 34.663 30.9785C34.7826 30.9474 34.9016 30.9026 35.0172 30.8514C35.0766 30.8278 35.132 30.7969 35.1892 30.7694C35.2435 30.7404 35.3043 30.7073 35.3472 30.6806L35.5699 30.5416L35.7218 30.7474L35.8313 30.8962C35.8695 30.9438 35.901 31.0014 35.9442 31.0417L36.0718 31.1674C36.1114 31.2144 36.1613 31.2425 36.2086 31.2751C36.2577 31.3034 36.3006 31.3499 36.355 31.3646L36.5113 31.4303L36.6774 31.4631C36.7337 31.4726 36.792 31.4659 36.8496 31.4689C36.9076 31.4753 36.9664 31.4539 37.0252 31.4486C37.0851 31.4439 37.1428 31.4205 37.2019 31.4047C37.2616 31.3905 37.3192 31.3655 37.3772 31.3404C37.4357 31.3187 37.4926 31.2898 37.5489 31.2584C37.6629 31.2005 37.771 31.1274 37.8764 31.0503C37.9798 30.9735 38.0854 30.8865 38.1715 30.8L38.3014 30.6698L38.4039 30.8147L38.4973 30.9466C38.5302 30.9891 38.5561 31.0395 38.5946 31.0762L38.7055 31.1919C38.7398 31.2345 38.7841 31.2631 38.8262 31.2951C38.8702 31.324 38.9078 31.3663 38.9569 31.3858L39.0996 31.4581L39.2528 31.5054C39.3036 31.5251 39.359 31.5221 39.4125 31.5321C39.4663 31.5427 39.5212 31.5393 39.5764 31.5379C39.6319 31.5393 39.687 31.5346 39.7419 31.524C39.8529 31.5112 39.9629 31.4823 40.0708 31.4464C40.1784 31.4105 40.2846 31.366 40.3863 31.3123C40.4886 31.26 40.5881 31.2005 40.6814 31.1315Z" fill="white"/>
</mask>
<g mask="url(#mask19)">
<path fill-rule="evenodd" clip-rule="evenodd" d="M22.6299 39.2683H40.6893V27.6858H22.6299V39.2683Z" fill="#4CA32B"/>
</g>
<mask id="mask20" mask-type="alpha" maskUnits="userSpaceOnUse" x="35" y="27" width="5" height="4">
<path d="M39.7053 29.1597C39.7053 29.1597 39.2365 27.2538 38.5415 28.3711C37.8467 29.4885 38.2449 31.2631 36.5856 29.8829C34.9262 28.5024 36.1873 28.0198 36.1873 28.0198C36.1873 28.0198 36.121 28.7656 36.9175 28.8968C36.9175 28.8968 36.6873 27.7138 37.3665 27.5166C38.0459 27.3194 39.7053 27.1878 39.7053 29.1597Z" fill="white"/>
</mask>
<g mask="url(#mask20)">
<path fill-rule="evenodd" clip-rule="evenodd" d="M35.7065 30.3894H39.7198V27.3853H35.7065V30.3894Z" fill="#D2403C"/>
</g>
<mask id="mask21" mask-type="alpha" maskUnits="userSpaceOnUse" x="30" y="26" width="5" height="4">
<path d="M34.6609 28.3711C34.6609 28.3711 34.1924 26.4649 33.4973 27.5823C32.8025 28.6996 33.2008 30.4743 31.5411 29.0941C29.8818 27.7138 31.1429 27.2309 31.1429 27.2309C31.1429 27.2309 31.0766 27.9767 31.8731 28.1083C31.8731 28.1083 31.6429 26.925 32.3221 26.7277C33.0015 26.5305 34.6609 26.3992 34.6609 28.3711Z" fill="white"/>
</mask>
<g mask="url(#mask21)">
<path fill-rule="evenodd" clip-rule="evenodd" d="M30.6562 29.6218H34.6695V26.6177H30.6562V29.6218Z" fill="#D2403C"/>
</g>
<mask id="mask22" mask-type="alpha" maskUnits="userSpaceOnUse" x="25" y="25" width="5" height="4">
<path d="M29.6164 27.5823C29.6164 27.5823 29.1477 25.6761 28.4526 26.7937C27.7578 27.9111 28.1561 29.6858 26.4967 28.3055C24.8374 26.925 26.0985 26.4424 26.0985 26.4424C26.0985 26.4424 26.0321 27.1879 26.8286 27.3195C26.8286 27.3195 26.5984 26.1364 27.2776 25.9392C27.9568 25.742 29.6164 25.6104 29.6164 27.5823Z" fill="white"/>
</mask>
<g mask="url(#mask22)">
<path fill-rule="evenodd" clip-rule="evenodd" d="M25.6396 28.8205H29.6194V25.8164H25.6396V28.8205Z" fill="#D2403C"/>
</g>
<mask id="mask23" mask-type="alpha" maskUnits="userSpaceOnUse" x="20" y="28" width="3" height="3">
<path d="M21.713 30.8848C21.713 30.8848 22.323 29.8918 21.5591 30.0715C20.7949 30.2514 20.2111 31.1604 20.0999 29.8934C19.9887 28.6267 20.7211 28.9477 20.7211 28.9477C20.7211 28.9477 20.378 29.2322 20.6561 29.6181C20.6561 29.6181 21.0603 29.0267 21.4281 29.2261C21.7963 29.4253 22.5474 30.0587 21.713 30.8848Z" fill="white"/>
</mask>
<g mask="url(#mask23)">
<path fill-rule="evenodd" clip-rule="evenodd" d="M20.0884 30.8902H22.095V28.8875H20.0884V30.8902Z" fill="#D2403C"/>
</g>
<mask id="mask24" mask-type="alpha" maskUnits="userSpaceOnUse" x="21" y="32" width="3" height="3">
<path d="M22.7752 34.8286C22.7752 34.8286 23.3855 33.8356 22.6216 34.0156C21.8574 34.1953 21.2736 35.1043 21.1624 33.8373C21.0512 32.5705 21.7836 32.8915 21.7836 32.8915C21.7836 32.8915 21.4402 33.1761 21.7186 33.5619C21.7186 33.5619 22.1228 32.9705 22.4906 33.17C22.8585 33.3691 23.6099 34.0025 22.7752 34.8286Z" fill="white"/>
</mask>
<g mask="url(#mask24)">
<path fill-rule="evenodd" clip-rule="evenodd" d="M21.125 34.8289H23.165V32.8262H21.125V34.8289Z" fill="#D2403C"/>
</g>
<mask id="mask25" mask-type="alpha" maskUnits="userSpaceOnUse" x="22" y="35" width="3" height="3">
<path d="M23.8372 37.7205C23.8372 37.7205 24.4473 36.7275 23.6834 36.9074C22.9195 37.0871 22.3356 37.9961 22.2244 36.7291C22.113 35.4624 22.8456 35.7834 22.8456 35.7834C22.8456 35.7834 22.5023 36.0682 22.7804 36.4537C22.7804 36.4537 23.1845 35.8627 23.5527 36.0618C23.9206 36.2613 24.6717 36.8946 23.8372 37.7205Z" fill="white"/>
</mask>
<g mask="url(#mask25)">
<path fill-rule="evenodd" clip-rule="evenodd" d="M22.1953 37.7327H24.2354V35.73H22.1953V37.7327Z" fill="#D2403C"/>
</g>
<mask id="mask26" mask-type="alpha" maskUnits="userSpaceOnUse" x="17" y="20" width="6" height="7">
<path d="M22.2036 26.9953C22.2036 26.9953 22.4748 26.3538 22.3569 26.0757C22.3569 26.0757 21.9539 27.1143 21.3012 26.662C20.6488 26.2098 21.0038 25.227 20.767 24.8089C20.5303 24.3909 19.9086 25.9536 19.3824 24.6749C18.8565 23.3965 19.3127 23.2215 19.3127 23.2215C19.3127 23.2215 16.8945 24.133 17.4522 22.5275C18.0098 20.9217 18.6542 20.7996 18.6542 20.7996C18.6542 20.7996 17.788 22.2101 18.1492 22.4279C18.1492 22.4279 18.568 20.2975 19.4599 21.4516C20.3514 22.6054 19.8211 23.4891 19.8211 23.4891C19.8211 23.4891 21.1426 22.812 21.1201 25.1522C21.1201 25.1522 22.1 23.8721 22.4862 25.464C22.8725 27.0556 22.2036 26.9953 22.2036 26.9953Z" fill="white"/>
</mask>
<g mask="url(#mask26)">
<path fill-rule="evenodd" clip-rule="evenodd" d="M17.3462 27.018H22.6303V20.7761H17.3462V27.018Z" fill="#397490"/>
</g>
<mask id="mask27" mask-type="alpha" maskUnits="userSpaceOnUse" x="14" y="18" width="5" height="3">
<path d="M17.3686 18.3209C17.3686 18.3209 18.3323 18.4461 18.0667 19.5635C17.8014 20.6808 18.7306 20.2864 18.7306 20.2864C18.7306 20.2864 16.5403 22.0611 15.1463 19.6948C13.7525 17.3287 17.3686 18.3209 17.3686 18.3209Z" fill="white"/>
</mask>
<g mask="url(#mask27)">
<path fill-rule="evenodd" clip-rule="evenodd" d="M14.8042 20.9432H18.7505V18.106H14.8042V20.9432Z" fill="#F1C358"/>
</g>
<mask id="mask28" mask-type="alpha" maskUnits="userSpaceOnUse" x="14" y="16" width="5" height="3">
<path d="M16.2798 18.321C14.7147 18.1026 14.2072 18.632 14.7824 17.8136C14.81 17.8242 14.827 17.8545 14.827 17.8545H15.0709C15.0709 17.8545 16.1422 17.6161 16.2748 16.9391C16.2868 16.8779 16.2765 16.8092 16.2489 16.7574C16.2692 16.7494 16.2904 16.7357 16.3122 16.7285C16.8303 16.7513 17.3857 16.7919 17.9846 16.862C18.2123 16.9435 18.459 17.0467 18.7307 17.1864C18.7307 17.1864 18.0551 18.5683 16.2798 18.321Z" fill="white"/>
</mask>
<g mask="url(#mask28)">
<path fill-rule="evenodd" clip-rule="evenodd" d="M14.5366 18.3731H18.7505V16.7041H14.5366V18.3731Z" fill="#4CA32B"/>
</g>
<mask id="mask29" mask-type="alpha" maskUnits="userSpaceOnUse" x="13" y="16" width="4" height="2">
<path d="M13.974 16.8585C13.9703 16.8293 13.9726 16.802 13.9773 16.7756C14.4829 16.7238 15.0464 16.698 15.6712 16.7046C15.7019 16.7049 15.73 16.7041 15.7607 16.7046C15.8298 16.7775 15.7409 17.0843 15.7409 17.0843C15.7423 17.1158 15.8786 16.8874 16.249 16.745C16.2768 16.7967 16.2871 16.8779 16.2752 16.9391C16.1422 17.6162 15.0709 17.8546 15.0709 17.8546H14.8268C14.8268 17.8546 14.6977 17.7511 14.6707 17.7405C14.6707 17.7402 14.671 17.7402 14.671 17.74C14.4436 17.6309 14.0372 17.3686 13.974 16.8585Z" fill="white"/>
</mask>
<g mask="url(#mask29)">
<path fill-rule="evenodd" clip-rule="evenodd" d="M13.9683 17.8724H16.3093V16.7041H13.9683V17.8724Z" fill="#D2403C"/>
</g>
<mask id="mask30" mask-type="alpha" maskUnits="userSpaceOnUse" x="11" y="17" width="5" height="2">
<path d="M15.0543 18.321C15.0543 18.321 14.2837 19.3441 13.0889 18.7527C11.8942 18.1611 11.9382 17.6966 11.9382 17.6966C11.9382 17.6966 13.2216 17.1533 14.2394 17.5038C15.2569 17.8545 15.0543 18.321 15.0543 18.321Z" fill="white"/>
</mask>
<g mask="url(#mask30)">
<path fill-rule="evenodd" clip-rule="evenodd" d="M11.9282 18.9404H15.0719V17.3716H11.9282V18.9404Z" fill="#397490"/>
</g>
<mask id="mask31" mask-type="alpha" maskUnits="userSpaceOnUse" x="14" y="17" width="2" height="2">
<path d="M14.6587 17.9301C14.6587 17.7142 14.892 17.5396 15.1796 17.5396C15.4675 17.5396 15.7007 17.7142 15.7007 17.9301C15.7007 18.1459 15.4675 18.3209 15.1796 18.3209C14.892 18.3209 14.6587 18.1459 14.6587 17.9301Z" fill="white"/>
</mask>
<g mask="url(#mask31)">
<path fill-rule="evenodd" clip-rule="evenodd" d="M14.6372 18.3397H15.7074V17.5386H14.6372V18.3397Z" fill="white"/>
</g>
<path fill-rule="evenodd" clip-rule="evenodd" d="M53.1132 1.37756C52.8083 1.63498 44.4931 9.63252 44.0721 10.0741C43.6511 10.5156 43.5177 11.8879 44.2186 12.471C44.9194 13.0541 46.1965 12.8786 46.6438 12.1977C47.0911 11.5169 50.3139 7.12408 53.7213 1.92151C53.8913 1.66184 53.9426 1.42631 53.7987 1.27323C53.6549 1.12015 53.4181 1.12015 53.1132 1.37756Z" fill="#F1C259"/>
</svg>
