<svg width="30" height="30" viewBox="0 0 30 30" fill="none" xmlns="http://www.w3.org/2000/svg">
<rect width="30" height="30" rx="7" fill="#60764D"/>
<path d="M20.707 10.8516C20.207 10.8516 19.832 10.5586 19.582 9.97266C19.3633 9.47266 19.1602 9.16797 18.9727 9.05859C18.8086 8.97266 18.4023 8.92969 17.7539 8.92969C16.6211 8.92969 15.3633 9.79688 13.9805 11.5312C12.1055 13.8594 11.168 16.0664 11.168 18.1523C11.168 19.1602 11.4922 20.0273 12.1406 20.7539C12.8047 21.5039 13.6055 21.8789 14.543 21.8789C15.3477 21.8789 16.1562 21.6719 16.9688 21.2578C17.4219 21.0234 18.1172 20.5625 19.0547 19.875C19.5 19.5469 19.8359 19.3828 20.0625 19.3828C20.3984 19.3828 20.6797 19.5117 20.9062 19.7695C21.1328 20.0195 21.2461 20.3008 21.2461 20.6133C21.2461 20.9648 21.0977 21.2734 20.8008 21.5391C18.7383 23.3672 16.6523 24.2812 14.543 24.2812C12.9258 24.2812 11.5586 23.6602 10.4414 22.418C9.36328 21.2148 8.82422 19.793 8.82422 18.1523C8.82422 15.5039 9.93359 12.7891 12.1523 10.0078C14.0039 7.6875 15.8711 6.52734 17.7539 6.52734C18.1367 6.52734 18.4805 6.54688 18.7852 6.58594C19.0898 6.61719 19.3594 6.67187 19.5938 6.75C19.8672 6.35156 20.2227 6.15234 20.6602 6.15234C21.1992 6.15234 21.5391 6.50781 21.6797 7.21875C21.8047 7.85156 21.8672 8.62891 21.8672 9.55078C21.8672 9.87109 21.7812 10.1523 21.6094 10.3945C21.3984 10.6992 21.0977 10.8516 20.707 10.8516Z" fill="#FFFBEB"/>
</svg>
