<svg width="60" height="61" viewBox="0 0 60 61" fill="none" xmlns="http://www.w3.org/2000/svg">
<path fill-rule="evenodd" clip-rule="evenodd" d="M41.5365 1L11.5115 30.9985L-0.000976562 19.4838L18.4819 1.00102H41.5355" fill="#14AB7E"/>
<path fill-rule="evenodd" clip-rule="evenodd" d="M59.999 42.5481L30.0088 12.5138L41.5192 0.998047L59.999 19.4839V42.547" fill="#14AB7E"/>
<path fill-rule="evenodd" clip-rule="evenodd" d="M18.4624 60.997L48.4895 30.9985L59.9989 42.5112L41.5192 60.9981H18.4614" fill="#14AB7E"/>
<path fill-rule="evenodd" clip-rule="evenodd" d="M0 19.4492L29.9902 49.4835L18.4818 60.9972L0 42.5113V19.4492Z" fill="#14AB7E"/>
<path fill-rule="evenodd" clip-rule="evenodd" d="M30.0086 12.5126L41.5191 1.00098L42.4527 1.93463L30.9433 13.4483L30.0086 12.5136V12.5126ZM17.5646 60.0623L29.075 48.5486L30.0086 49.4833L18.4992 60.997L17.5646 60.0623ZM0.934634 18.5501L12.4451 30.0638L11.5104 30.9985L0 19.4838L0.934634 18.5501ZM48.4894 30.9985L59.9988 42.5111L59.0652 43.4458L47.5548 31.9321L48.4894 30.9985Z" fill="#169064"/>
</svg>
