<svg width="240" height="110" viewBox="0 0 240 110" fill="none" xmlns="http://www.w3.org/2000/svg">
<path d="M37.0206 77.9346C44.4008 61.9932 51.5313 45.9314 58.9414 30C60.3695 30.7419 61.7876 31.4939 63.2157 32.2458C55.7856 48.1171 48.6551 64.1287 41.225 80C39.8269 79.3182 38.4254 78.6298 37.0206 77.9346Z" fill="white"/>
<path d="M143.339 30.04H157.59C157.58 44.3171 157.577 58.5976 157.58 72.8814C160.706 72.8814 163.822 72.8914 166.937 72.8914C166.937 74.265 166.937 75.6486 166.947 77.0322H142.979C142.969 75.6486 142.969 74.265 142.979 72.8914H152.397C152.387 59.9912 152.387 47.0876 152.397 34.1807H143.339V30.04Z" fill="white"/>
<path d="M185.123 36.0758C187.27 35.7349 189.417 35.3739 191.555 34.9729C190.226 38.0208 190.136 41.3796 189.727 44.628H200.343C200.343 46.0317 200.353 47.4253 200.353 48.8289C196.718 48.8289 193.093 48.839 189.457 48.8289C189.198 54.5438 188.559 60.2486 188.738 65.9735C188.908 68.5101 189.228 71.9089 192.024 72.9115C195.609 74.1548 199.124 72.0292 201.971 70.0641L203.559 74.1548C199.204 77.1425 193.382 78.7367 188.369 76.551C185.163 75.027 184.144 71.2372 183.785 67.9887C183.176 61.6122 184.114 55.2155 184.324 48.8289H177.294C177.294 47.4253 177.294 46.0317 177.304 44.628H184.614C184.774 41.7806 184.943 38.9299 185.123 36.0758Z" fill="white"/>
<path d="M0.0399467 52.5887C9.92676 47.3451 19.8136 42.1115 29.7004 36.8879C29.7104 38.5823 29.7104 40.2667 29.7104 41.951C21.6711 46.1018 13.6185 50.2292 5.5526 54.3332C13.492 59.3362 21.8109 63.6876 29.9501 68.3497V73.7938C19.9834 67.8584 9.84687 62.2037 0 56.0577C0.00998668 55.1955 0.0299601 53.461 0.0399467 52.5887Z" fill="white"/>
<path d="M210.26 36.8779C220.166 42.1014 230.07 47.3317 239.97 52.5687C239.98 53.451 239.99 55.2155 240 56.0978C230.183 62.2137 220.077 67.8484 210.14 73.7738V68.3296C218.249 63.6675 226.538 59.3162 234.447 54.3333C226.358 50.2426 218.319 46.0718 210.25 41.9611C210.25 40.2667 210.25 38.5723 210.26 36.8779Z" fill="white"/>
<path d="M74.7004 47.5356C77.976 43.6756 83.6085 43.6154 88.2423 44.0566C91.9089 44.5053 95.3109 46.2041 97.8795 48.8691C96.8109 50.1925 95.7423 51.5059 94.7137 52.8594C91.9773 47.8865 84.8369 46.3626 79.9933 48.9493C79.581 49.1778 79.2251 49.4966 78.9522 49.8819C78.6792 50.2673 78.4961 50.7094 78.4165 51.1755C78.3369 51.6415 78.3628 52.1196 78.4923 52.5743C78.6217 53.0289 78.8515 53.4485 79.1644 53.8019C84.018 58.8049 92.3169 57.8123 96.9407 63.1763C100.216 67.6178 97.5799 74.3553 92.6864 76.3305C89.1578 77.7249 85.3178 78.1293 81.5777 77.5006C77.8377 76.8718 74.3384 75.2336 71.4547 72.7612C72.5731 70.9683 73.5514 69.0912 74.3808 67.1466C77.207 73.3327 85.506 75.1173 91.1884 72.0694C91.7731 71.7401 92.2697 71.2735 92.6356 70.7096C93.0016 70.1456 93.2261 69.5011 93.2899 68.8311C93.3537 68.161 93.2549 67.4855 93.002 66.8621C92.749 66.2388 92.3495 65.6862 91.8375 65.2517C87.2736 61.9431 81.1518 61.8729 76.6777 58.3537C73.3322 56.0177 71.994 50.8542 74.7004 47.5356Z" fill="white"/>
<path d="M108.056 48.3076C113.209 43.5152 121.298 42.6128 127.55 45.6507C131.844 47.7863 133.392 52.8394 133.582 57.3311C133.822 63.8881 133.622 70.4652 133.692 77.0323H128.109C128.119 75.5083 128.149 73.9743 128.179 72.4504C124.464 78.446 115.905 79.1478 110.063 76.1701C105.05 73.6335 104.571 66.1039 108.585 62.4343C113.998 57.1005 122.257 57.3912 129.278 58.1031C128.808 55.0451 128.309 51.3856 125.413 49.6311C120.659 46.8739 114.477 48.0971 110.503 51.6764C109.684 50.5535 108.865 49.4305 108.056 48.3076ZM113.668 63.5974C110.253 65.5123 109.883 71.6082 113.758 73.1923C118.202 74.7664 123.935 73.7538 126.811 69.7534C128.489 67.5376 128.898 64.7002 129.288 62.0233C124.114 61.6222 118.362 60.7901 113.668 63.5974V63.5974Z" fill="white"/>
</svg>
