<svg width="70" height="70" viewBox="0 0 70 70" fill="none" xmlns="http://www.w3.org/2000/svg">
<path d="M44.3571 5V2.5H41.8571H25C12.5736 2.5 2.5 12.5736 2.5 25V45C2.5 57.4264 12.5736 67.5 25 67.5H28.1429H30.6429V65V37.5H41.8571H44.3571V35V5Z" fill="#FF7B9C" stroke="#FF7B9C" stroke-width="5"/>
<path d="M41.8571 2.5H39.3571V5V32.5H28.1428H25.6428V35V65V67.5H28.1428H64C65.933 67.5 67.5 65.933 67.5 64V25C67.5 12.5736 57.4264 2.5 45 2.5H41.8571Z" fill="#FEFEFC" stroke="#FF7B9C" stroke-width="5"/>
<path d="M42.0513 52.2588V46.1063H28.1429V34.9635H41.8572V28.9635C41.8572 26.0506 46.1461 24.4394 48.5409 26.4991L62.1723 38.223C63.6569 39.4998 63.6569 41.5699 62.1723 42.8468L48.5409 54.5707C46.146 56.6304 42.0513 55.1717 42.0513 52.2588Z" fill="#FF7B9C"/>
<path d="M28.1428 17.8206V23.8207H41.8571V34.9635L28.1428 34.9635V40.9635C28.1428 43.8764 24.7742 45.4876 22.7299 43.4279L11.0934 31.704C9.82598 30.4273 9.82598 28.3571 11.0934 27.0802L22.7299 15.3563C24.7744 13.2966 28.1428 14.9077 28.1428 17.8206Z" fill="#FEFEFC"/>
</svg>
