<svg width="86" height="86" viewBox="0 0 86 86" fill="none" xmlns="http://www.w3.org/2000/svg">
<g>
<path d="M67 3H19C10.1634 3 3 10.1634 3 19V67C3 75.8366 10.1634 83 19 83H67C75.8366 83 83 75.8366 83 67V19C83 10.1634 75.8366 3 67 3Z" fill="white"/>
<path d="M54.3333 20.6666V64.6666C54.3333 69.5901 57.7299 72.3333 61.3333 72.3333C64.6667 72.3333 68.3333 70 68.3333 64.6666V21C68.3333 16.4866 65 13.6666 61.3333 13.6666C57.6667 13.6666 54.3333 16.7766 54.3333 20.6666Z" fill="#F9AB00"/>
<path d="M36 43V64.6667C36 69.5901 39.3965 72.3333 43 72.3333C46.3333 72.3333 50 70 50 64.6667V43.3333C50 38.82 46.6667 36 43 36C39.3333 36 36 39.1099 36 43Z" fill="#E37400"/>
<path d="M24.6667 72.3334C28.5326 72.3334 31.6667 69.1994 31.6667 65.3334C31.6667 61.4674 28.5326 58.3334 24.6667 58.3334C20.8007 58.3334 17.6667 61.4674 17.6667 65.3334C17.6667 69.1994 20.8007 72.3334 24.6667 72.3334Z" fill="#E37400"/>
</g>
<defs>
</defs>
</svg>
