<svg width="86" height="86" viewBox="0 0 86 86" fill="none" xmlns="http://www.w3.org/2000/svg">
<g>
<path d="M67 3H19C10.1634 3 3 10.1634 3 19V67C3 75.8366 10.1634 83 19 83H67C75.8366 83 83 75.8366 83 67V19C83 10.1634 75.8366 3 67 3Z" fill="white"/>
<path d="M32.3332 75.0001C38.2212 75.0001 42.9998 70.2214 42.9998 64.3334V53.6667H32.3332C26.4452 53.6667 21.6665 58.4454 21.6665 64.3334C21.6665 70.2214 26.4452 75.0001 32.3332 75.0001Z" fill="#0ACF83"/>
<path d="M21.6665 42.9999C21.6665 37.1119 26.4452 32.3333 32.3332 32.3333H42.9998V53.6666H32.3332C26.4452 53.6666 21.6665 48.8879 21.6665 42.9999Z" fill="#A259FF"/>
<path d="M21.6665 21.6667C21.6665 15.7787 26.4452 11 32.3332 11H42.9998V32.3333H32.3332C26.4452 32.3333 21.6665 27.5547 21.6665 21.6667Z" fill="#F24E1E"/>
<path d="M43 11H53.6667C59.5547 11 64.3333 15.7787 64.3333 21.6667C64.3333 27.5547 59.5547 32.3333 53.6667 32.3333H43V11Z" fill="#FF7262"/>
<path d="M64.3333 42.9999C64.3333 48.8879 59.5547 53.6666 53.6667 53.6666C47.7787 53.6666 43 48.8879 43 42.9999C43 37.1119 47.7787 32.3333 53.6667 32.3333C59.5547 32.3333 64.3333 37.1119 64.3333 42.9999Z" fill="#1ABCFE"/>
</g>
<defs>
<filter id="filter0_d" x="0" y="0" width="86" height="86" filterUnits="userSpaceOnUse" color-interpolation-filters="sRGB">
<feColorMatrix in="SourceAlpha" type="matrix" values="0 0 0 0 0 0 0 0 0 0 0 0 0 0 0 0 0 0 127 0"/>
<feBlend mode="normal" in="SourceGraphic" in2="effect1_dropShadow" result="shape"/>
</filter>
</defs>
</svg>
