<svg width="86" height="86" viewBox="0 0 86 86" fill="none" xmlns="http://www.w3.org/2000/svg">
<g>
<path d="M67 3H19C10.1634 3 3 10.1634 3 19V67C3 75.8366 10.1634 83 19 83H67C75.8366 83 83 75.8366 83 67V19C83 10.1634 75.8366 3 67 3Z" fill="white"/>
<path fill-rule="evenodd" clip-rule="evenodd" d="M42.9971 11C25.3288 11 11 25.3267 11 43.0011C11 57.1392 20.1681 69.1323 32.884 73.3637C34.4851 73.6584 35.0685 72.6701 35.0685 71.8216C35.0685 71.0632 35.0411 69.0496 35.0253 66.38C26.1243 68.3131 24.2464 62.0896 24.2464 62.0896C22.7907 58.3925 20.6926 57.4083 20.6926 57.4083C17.7872 55.4243 20.9126 55.4635 20.9126 55.4635C24.1245 55.6893 25.8139 58.7619 25.8139 58.7619C28.6683 63.6515 33.3045 62.2389 35.1275 61.4197C35.4181 59.3531 36.2453 57.9427 37.1587 57.1432C30.0533 56.3357 22.5824 53.5893 22.5824 41.3272C22.5824 37.8344 23.8299 34.9763 25.8768 32.7405C25.5467 31.9312 24.4485 28.6763 26.1912 24.2717C26.1912 24.2717 28.8765 23.4115 34.9899 27.5525C37.5419 26.8413 40.2803 26.4877 43.0011 26.4741C45.7197 26.4877 48.4563 26.8413 51.012 27.5525C57.1216 23.4115 59.8029 24.2717 59.8029 24.2717C61.5493 28.6763 60.4512 31.9312 60.1232 32.7405C62.1741 34.9763 63.4117 37.8344 63.4117 41.3272C63.4117 53.6208 55.9291 56.3259 48.8021 57.1176C49.9493 58.1056 50.9728 60.0584 50.9728 63.0443C50.9728 67.3211 50.9333 70.7725 50.9333 71.8216C50.9333 72.6781 51.5109 73.6739 53.1336 73.3616C65.8397 69.1203 75 57.1352 75 43.0011C75 25.3267 60.6712 11 42.9971 11Z" fill="#161514"/>
</g>
</svg>
