<svg width="86" height="86" viewBox="0 0 86 86" fill="none" xmlns="http://www.w3.org/2000/svg">
<g>
<path d="M67 3H19C10.1634 3 3 10.1634 3 19V67C3 75.8366 10.1634 83 19 83H67C75.8366 83 83 75.8366 83 67V19C83 10.1634 75.8366 3 67 3Z" fill="#FEFEFE"/>
<path d="M23.0438 8.33337H26.1584V11.4209H29.0292V8.33337H32.1438V17.6771H29.0292V14.5625H26.1855V17.6771H23.0438V8.33337ZM36.2605 11.448H33.5115V8.33337H42.1375V11.448H39.375V17.6771H36.2605V11.448ZM43.5053 8.33337H46.7688L48.773 11.624L50.7771 8.33337H54.0407V17.6771H50.9261V13.0459L48.7459 16.4042L46.5657 13.0459V17.6771H43.5053V8.33337ZM55.5844 8.33337H58.699V14.5896H63.1136V17.6771H55.5844" fill="black"/>
<path d="M22.9354 72.1148L18.4666 21.9564H67.5958L63.1271 72.0877L42.9906 77.6668" fill="#E44D26"/>
<path d="M43.0312 73.401V26.0729H63.1135L59.2813 68.8645" fill="#F16529"/>
<path d="M27.5938 32.2074H43.0313V38.3553H34.3375L34.9063 44.6522H43.0313V50.7866H29.2729L27.5938 32.2074ZM29.5437 53.8741H35.7188L36.1521 58.7897L43.0313 60.6314V67.0501L30.4104 63.5293" fill="#EBEBEB"/>
<path d="M58.4145 32.2074H43.0041V38.3553H57.8457L58.4145 32.2074ZM57.2905 44.6522H43.0041V50.8001H50.5874L49.8697 58.7897L43.0041 60.6314V67.023L55.5978 63.5293" fill="white"/>
</g>
</svg>
