<svg width="86" height="86" viewBox="0 0 86 86" fill="none" xmlns="http://www.w3.org/2000/svg">
<g>
<path d="M67 3H19C10.1634 3 3 10.1634 3 19V67C3 75.8366 10.1634 83 19 83H67C75.8366 83 83 75.8366 83 67V19C83 10.1634 75.8366 3 67 3Z" fill="#F7DF1E"/>
<path d="M56.7397 68.1669C58.3511 70.798 60.4476 72.732 64.1556 72.732C67.2705 72.732 69.2603 71.1752 69.2603 69.0241C69.2603 66.4463 67.2159 65.5333 63.7873 64.0336L61.908 63.2272C56.4832 60.9161 52.8794 58.0209 52.8794 51.9002C52.8794 46.2622 57.1753 41.9701 63.8889 41.9701C68.6686 41.9701 72.1048 43.6336 74.581 47.9891L68.727 51.7479C67.4381 49.4368 66.0476 48.5263 63.8889 48.5263C61.687 48.5263 60.2915 49.9231 60.2915 51.7479C60.2915 54.0031 61.6883 54.9161 64.9137 56.3129L66.793 57.118C73.1803 59.8571 76.7867 62.6495 76.7867 68.9275C76.7867 75.6958 71.4699 79.4037 64.3295 79.4037C57.348 79.4037 52.8375 76.0768 50.6305 71.7161L56.7397 68.1669ZM30.1835 68.8183C31.3645 70.9136 32.4388 72.685 35.0216 72.685C37.4914 72.685 39.0495 71.7187 39.0495 67.9612V42.3993H46.567V68.0628C46.567 75.8469 42.0032 79.3898 35.3416 79.3898C29.3226 79.3898 25.8368 76.2749 24.0641 72.5231L30.1835 68.8183Z" fill="black"/>
</g>
</svg>
