<svg width="86" height="86" viewBox="0 0 86 86" fill="none" xmlns="http://www.w3.org/2000/svg">
<g>
<path d="M67 3H19C10.1634 3 3 10.1634 3 19V67C3 75.8366 10.1634 83 19 83H67C75.8366 83 83 75.8366 83 67V19C83 10.1634 75.8366 3 67 3Z" fill="#FEFEFE"/>
<g clip-path="url(#clip0)">
<path d="M40.3585 11.8126C41.9536 10.9082 44.0313 10.9042 45.625 11.8126C53.6429 16.3004 61.6634 20.781 69.6799 25.2715C71.1878 26.1128 72.1963 27.775 72.181 29.4959V56.4958C72.1922 58.288 71.084 59.9899 69.4932 60.8121C61.5016 65.2751 53.5142 69.7435 45.524 74.2065C43.8959 75.1286 41.7765 75.0576 40.1993 74.0599C37.8034 72.6841 35.4034 71.3152 33.0073 69.9408C32.5177 69.6516 31.9657 69.4215 31.62 68.9513C31.9257 68.5432 32.4721 68.4924 32.9161 68.3142C33.9162 67.9992 34.8347 67.4936 35.7535 67.0029C35.9858 66.8454 36.2695 66.9058 36.4922 67.0467C38.5409 68.2103 40.5716 69.4077 42.6272 70.5601C43.0658 70.8109 43.5098 70.4779 43.8846 70.271C51.7268 65.8806 59.5787 61.5068 67.4195 57.1151C67.71 56.9767 67.8706 56.6712 67.847 56.356C67.8525 47.4493 67.8484 38.541 67.8498 29.6344C67.883 29.2767 67.674 28.9478 67.3475 28.8015C59.3837 24.3589 51.4239 19.9096 43.4614 15.4659C43.3235 15.3719 43.1601 15.3215 42.9927 15.3213C42.8252 15.321 42.6617 15.371 42.5234 15.4645C34.561 19.9096 26.6026 24.363 18.6401 28.8053C18.3148 28.9519 18.0964 29.2753 18.1351 29.6344C18.1365 38.541 18.1351 47.4493 18.1351 56.3573C18.1213 56.5111 18.1554 56.6654 18.2328 56.7995C18.3103 56.9335 18.4273 57.0408 18.5682 57.1069C20.693 58.3005 22.8206 59.4856 24.9468 60.6751C26.1446 61.3137 27.6153 61.6932 28.935 61.2039C30.0996 60.7901 30.9159 59.6129 30.8937 58.3881C30.9047 49.5334 30.8882 40.6773 30.902 31.824C30.8729 31.4309 31.2493 31.1061 31.6351 31.1431C32.6561 31.1363 33.6784 31.1295 34.6993 31.1459C35.1255 31.1363 35.4188 31.5596 35.3661 31.9556C35.3619 40.8664 35.3771 49.7774 35.3592 58.6881C35.3619 61.0629 34.377 63.647 32.1594 64.809C29.4274 66.2108 26.0506 65.9135 23.3517 64.5693C21.0151 63.4141 18.7854 62.0508 16.4903 60.8133C14.8954 59.9956 13.7927 58.2869 13.8039 56.496V29.4959C13.7872 27.7393 14.8358 26.047 16.3906 25.2179C24.3808 20.7513 32.3697 16.2813 40.3585 11.8126Z" fill="#8CC84B"/>
<path d="M47.3305 30.5154C50.8154 30.2932 54.5461 30.3837 57.6821 32.0843C60.11 33.3875 61.4561 36.1224 61.499 38.7943C61.4311 39.1547 61.0508 39.3536 60.7035 39.3288C59.6924 39.3275 58.681 39.3424 57.6699 39.322C57.241 39.3384 56.9917 38.9466 56.9379 38.571C56.6474 37.2926 55.9435 36.0264 54.7287 35.4098C52.864 34.485 50.7018 34.5315 48.6683 34.5508C47.1839 34.6289 45.5876 34.7562 44.33 35.6209C43.3645 36.2759 43.0712 37.5981 43.4158 38.6629C43.7407 39.4275 44.6317 39.6742 45.3608 39.9016C49.5605 40.9897 54.0109 40.8814 58.1305 42.3132C59.836 42.897 61.5045 44.0317 62.0882 45.8006C62.8519 48.1713 62.5172 51.005 60.8144 52.9083C59.4335 54.4744 57.4223 55.3269 55.4163 55.7899C52.7478 56.3793 49.9784 56.3942 47.2684 56.1326C44.7202 55.8448 42.0684 55.1816 40.1012 53.4618C38.419 52.015 37.5974 49.7607 37.6789 47.5849C37.6984 47.2174 38.0677 46.9612 38.4231 46.9914C39.4413 46.9832 40.4595 46.9805 41.4777 46.9928C41.8844 46.9639 42.1859 47.3121 42.2068 47.6918C42.3946 48.9098 42.8568 50.1882 43.929 50.9104C45.9984 52.2328 48.595 52.1423 50.9646 52.1793C52.9277 52.093 55.1313 52.0669 56.7333 50.7817C57.5785 50.0487 57.8289 48.8222 57.6005 47.7671C57.3531 46.8763 56.4123 46.4612 55.6044 46.1898C51.4585 44.8907 46.9584 45.3621 42.8526 43.893C41.1858 43.3096 39.574 42.2063 38.9336 40.5101C38.04 38.1094 38.4495 35.14 40.3307 33.301C42.1651 31.4718 44.813 30.7673 47.3305 30.5151V30.5154Z" fill="#8CC84B"/>
</g>
</g>
<defs>
<clipPath id="clip0">
<rect width="58.6667" height="64" fill="white" transform="translate(13.6667 11)"/>
</clipPath>
</defs>
</svg>
