<svg width="86" height="86" viewBox="0 0 86 86" fill="none" xmlns="http://www.w3.org/2000/svg">
<g>
<path d="M67 3H19C10.1634 3 3 10.1634 3 19V67C3 75.8366 10.1634 83 19 83H67C75.8366 83 83 75.8366 83 67V19C83 10.1634 75.8366 3 67 3Z" fill="white"/>
<path d="M75.5 17H47.3333V25.6667H75.5C76.0746 25.6667 76.6257 25.4384 77.032 25.0321C77.4384 24.6257 77.6666 24.0746 77.6666 23.5V19.1667C77.6666 18.592 77.4384 18.0409 77.032 17.6346C76.6257 17.2283 76.0746 17 75.5 17V17ZM10.5 25.6667H34.3333V17H10.5C9.92534 17 9.37424 17.2283 8.96792 17.6346C8.56159 18.0409 8.33331 18.592 8.33331 19.1667V23.5C8.33331 24.0746 8.56159 24.6257 8.96792 25.0321C9.37424 25.4384 9.92534 25.6667 10.5 25.6667ZM10.5 47.3333H51.6666V38.6667H10.5C9.92534 38.6667 9.37424 38.8949 8.96792 39.3013C8.56159 39.7076 8.33331 40.2587 8.33331 40.8333V45.1667C8.33331 45.7413 8.56159 46.2924 8.96792 46.6987C9.37424 47.1051 9.92534 47.3333 10.5 47.3333ZM75.5 38.6667H64.6666V47.3333H75.5C76.0746 47.3333 76.6257 47.1051 77.032 46.6987C77.4384 46.2924 77.6666 45.7413 77.6666 45.1667V40.8333C77.6666 40.2587 77.4384 39.7076 77.032 39.3013C76.6257 38.8949 76.0746 38.6667 75.5 38.6667ZM75.5 60.3333H30V69H75.5C76.0746 69 76.6257 68.7717 77.032 68.3654C77.4384 67.9591 77.6666 67.408 77.6666 66.8333V62.5C77.6666 61.9254 77.4384 61.3743 77.032 60.9679C76.6257 60.5616 76.0746 60.3333 75.5 60.3333ZM8.33331 62.5V66.8333C8.33331 67.408 8.56159 67.9591 8.96792 68.3654C9.37424 68.7717 9.92534 69 10.5 69H17V60.3333H10.5C9.92534 60.3333 9.37424 60.5616 8.96792 60.9679C8.56159 61.3743 8.33331 61.9254 8.33331 62.5V62.5Z" fill="#252422"/>
<path d="M45.1666 12.6667H40.8333C40.2587 12.6667 39.7076 12.895 39.3012 13.3013C38.8949 13.7076 38.6666 14.2587 38.6666 14.8334V27.8334C38.6666 28.408 38.8949 28.9591 39.3012 29.3654C39.7076 29.7717 40.2587 30 40.8333 30H45.1666C45.7413 30 46.2924 29.7717 46.6987 29.3654C47.105 28.9591 47.3333 28.408 47.3333 27.8334V14.8334C47.3333 14.2587 47.105 13.7076 46.6987 13.3013C46.2924 12.895 45.7413 12.6667 45.1666 12.6667V12.6667ZM62.5 34.3334H58.1666C57.592 34.3334 57.0409 34.5616 56.6346 34.968C56.2282 35.3743 56 35.9254 56 36.5V49.5C56 50.0747 56.2282 50.6258 56.6346 51.0321C57.0409 51.4384 57.592 51.6667 58.1666 51.6667H62.5C63.0746 51.6667 63.6257 51.4384 64.032 51.0321C64.4384 50.6258 64.6666 50.0747 64.6666 49.5V36.5C64.6666 35.9254 64.4384 35.3743 64.032 34.968C63.6257 34.5616 63.0746 34.3334 62.5 34.3334ZM27.8333 56H23.5C22.9253 56 22.3742 56.2283 21.9679 56.6346C21.5616 57.041 21.3333 57.5921 21.3333 58.1667V71.1667C21.3333 71.7413 21.5616 72.2924 21.9679 72.6988C22.3742 73.1051 22.9253 73.3334 23.5 73.3334H27.8333C28.4079 73.3334 28.959 73.1051 29.3654 72.6988C29.7717 72.2924 30 71.7413 30 71.1667V58.1667C30 57.5921 29.7717 57.041 29.3654 56.6346C28.959 56.2283 28.4079 56 27.8333 56Z" fill="#F4B93A"/>
</g>
</svg>
