<svg width="86" height="86" viewBox="0 0 86 86" fill="none" xmlns="http://www.w3.org/2000/svg">
<g>
<path d="M67 3H19C10.1634 3 3 10.1634 3 19V67C3 75.8366 10.1634 83 19 83H67C75.8366 83 83 75.8366 83 67V19C83 10.1634 75.8366 3 67 3Z" fill="white"/>
<path d="M79 43.0073C79 38.2465 73.0269 33.7347 63.8691 30.9368C65.9825 21.6203 65.0432 14.2081 60.9046 11.835C59.9507 11.2783 58.8353 11.0146 57.6172 11.0146V14.2813C58.2923 14.2813 58.8353 14.4131 59.2903 14.6622C61.2862 15.8048 62.1521 20.1554 61.477 25.7512C61.3155 27.1282 61.0514 28.5784 60.7285 30.0579C57.852 29.3548 54.7114 28.8128 51.4093 28.4612C49.428 25.7512 47.3734 23.2902 45.3041 21.1369C50.0885 16.6983 54.5793 14.2667 57.6319 14.2667V11C53.596 11 48.3127 13.8711 42.9706 18.8517C37.6286 13.9004 32.3453 11.0586 28.3094 11.0586V14.3252C31.3473 14.3252 35.8528 16.7423 40.6372 21.1515C38.5826 23.3049 36.5279 25.7512 34.576 28.4612C31.2593 28.8128 28.1186 29.3548 25.2422 30.0726C24.9046 28.6077 24.6551 27.1868 24.479 25.8244C23.7892 20.2287 24.6404 15.878 26.6217 14.7208C27.062 14.4571 27.6343 14.3399 28.3094 14.3399V11.0732C27.0766 11.0732 25.9613 11.3369 24.9927 11.8936C20.8687 14.2667 19.9442 21.6642 22.0722 30.9515C12.9437 33.764 7 38.2612 7 43.0073C7 47.7681 12.9731 52.2799 22.1309 55.0778C20.0175 64.3944 20.9568 71.8066 25.0954 74.1797C26.0493 74.7363 27.1647 75 28.3975 75C32.4333 75 37.7167 72.1289 43.0587 67.1483C48.4007 72.0996 53.6841 74.9414 57.7199 74.9414C58.9527 74.9414 60.0681 74.6777 61.0367 74.1211C65.1606 71.748 66.0852 64.3504 63.9572 55.0632C73.0563 52.2653 79 47.7535 79 43.0073ZM59.892 33.2367C59.349 35.1263 58.6739 37.0746 57.9107 39.0229C57.309 37.851 56.6779 36.6791 55.9882 35.5072C55.3131 34.3353 54.594 33.1927 53.8749 32.0794C55.9588 32.387 57.9694 32.7679 59.892 33.2367ZM53.1704 48.8375C52.0257 50.8151 50.8516 52.6901 49.6335 54.4333C47.4468 54.6237 45.2307 54.7262 43 54.7262C40.7839 54.7262 38.5679 54.6237 36.3958 54.4479C35.1777 52.7047 33.989 50.8444 32.8443 48.8814C31.7289 46.9625 30.7163 45.0142 29.7917 43.0513C30.7016 41.0883 31.7289 39.1254 32.8296 37.2065C33.9743 35.2289 35.1484 33.3539 36.3665 31.6107C38.5532 31.4202 40.7693 31.3177 43 31.3177C45.2161 31.3177 47.4321 31.4202 49.6042 31.596C50.8223 33.3392 52.011 35.1996 53.1557 37.1625C54.2711 39.0815 55.2837 41.0298 56.2083 42.9927C55.2837 44.9556 54.2711 46.9185 53.1704 48.8375ZM57.9107 46.9332C58.7032 48.8961 59.3783 50.859 59.936 52.7633C58.0135 53.2321 55.9882 53.6276 53.8895 53.9352C54.6086 52.8073 55.3278 51.65 56.0029 50.4635C56.678 49.2916 57.309 48.1051 57.9107 46.9332ZM43.0294 62.5633C41.6645 61.157 40.2996 59.5896 38.9495 57.8757C40.2703 57.9343 41.6205 57.9783 42.9853 57.9783C44.3649 57.9783 45.7297 57.949 47.0652 57.8757C45.7444 59.5896 44.3795 61.157 43.0294 62.5633ZM32.1105 53.9352C30.0265 53.6276 28.0159 53.2467 26.0934 52.778C26.6364 50.8883 27.3115 48.94 28.0746 46.9918C28.6763 48.1637 29.3074 49.3355 29.9971 50.5074C30.6869 51.6793 31.3914 52.8219 32.1105 53.9352ZM42.956 23.4514C44.3208 24.8576 45.6857 26.425 47.0359 28.1389C45.715 28.0803 44.3649 28.0364 43 28.0364C41.6205 28.0364 40.2556 28.0657 38.9201 28.1389C40.2409 26.425 41.6058 24.8576 42.956 23.4514ZM32.0958 32.0794C31.3767 33.2074 30.6576 34.3646 29.9825 35.5512C29.3074 36.723 28.6763 37.8949 28.0746 39.0668C27.2821 37.1039 26.607 35.141 26.0493 33.2367C27.9719 32.7826 29.9971 32.387 32.0958 32.0794ZM18.8141 50.4195C13.6188 48.2076 10.2581 45.3072 10.2581 43.0073C10.2581 40.7075 13.6188 37.7924 18.8141 35.5951C20.0762 35.0531 21.4558 34.5697 22.8793 34.1156C23.7159 36.9867 24.8166 39.9751 26.1814 43.0366C24.8312 46.0835 23.7452 49.0572 22.9234 51.9137C21.4704 51.4596 20.0909 50.9615 18.8141 50.4195ZM26.7097 71.3525C24.7138 70.2099 23.8479 65.8592 24.523 60.2634C24.6845 58.8865 24.9486 57.4362 25.2715 55.9567C28.148 56.6599 31.2886 57.2019 34.5907 57.5534C36.572 60.2634 38.6266 62.7244 40.6959 64.8778C35.9115 69.3163 31.4207 71.748 28.3681 71.748C27.7077 71.7333 27.15 71.6015 26.7097 71.3525ZM61.521 60.1902C62.2108 65.786 61.3596 70.1366 59.3783 71.2939C58.938 71.5576 58.3657 71.6747 57.6906 71.6747C54.6527 71.6747 50.1472 69.2577 45.3628 64.8485C47.4175 62.6951 49.4721 60.2488 51.424 57.5388C54.7407 57.1872 57.8814 56.6452 60.7578 55.9274C61.0954 57.407 61.3596 58.8279 61.521 60.1902ZM67.1712 50.4195C65.9091 50.9615 64.5296 51.445 63.106 51.8991C62.2695 49.0279 61.1688 46.0396 59.8039 42.978C61.1541 39.9311 62.2401 36.9574 63.062 34.1009C64.5149 34.555 65.8944 35.0531 67.1859 35.5951C72.3812 37.807 75.7419 40.7075 75.7419 43.0073C75.7273 45.3072 72.3665 48.2222 67.1712 50.4195Z" fill="#61DAFB"/>
<path d="M42.9855 49.7019C46.6896 49.7019 49.6923 46.7047 49.6923 43.0075C49.6923 39.3102 46.6896 36.313 42.9855 36.313C39.2813 36.313 36.2786 39.3102 36.2786 43.0075C36.2786 46.7047 39.2813 49.7019 42.9855 49.7019Z" fill="#61DAFB"/>
</g>
</svg>
