<svg width="86" height="86" viewBox="0 0 86 86" fill="none" xmlns="http://www.w3.org/2000/svg">
<g>
<path d="M67 3.00024H19C10.1634 3.00024 3 10.1637 3 19.0002V67.0001C3 75.8366 10.1634 83 19 83H67C75.8366 83 83 75.8366 83 67.0001V19.0002C83 10.1637 75.8366 3.00024 67 3.00024Z" fill="#FEFEFE"/>
<path d="M67.407 46.7421C65.0812 46.7543 63.0597 47.3145 61.3671 48.1425C60.746 46.9126 60.125 45.8167 60.0154 45.013C59.8936 44.0753 59.7475 43.503 59.8936 42.3827C60.0398 41.2623 60.6973 39.6671 60.6851 39.5453C60.673 39.4236 60.539 38.8512 59.1995 38.8391C57.86 38.8269 56.7032 39.0948 56.5692 39.4479C56.4353 39.8011 56.1795 40.6048 56.0091 41.4328C55.7777 42.6506 53.3301 46.9979 51.9297 49.275C51.4791 48.3861 51.0894 47.6067 51.0042 46.9857C50.8824 46.048 50.7363 45.4757 50.8824 44.3554C51.0285 43.2351 51.6861 41.6398 51.6739 41.5181C51.6618 41.3963 51.5278 40.824 50.1883 40.8118C48.8488 40.7996 47.692 41.0675 47.558 41.4207C47.4241 41.7738 47.2779 42.6019 46.9979 43.4056C46.7178 44.2093 43.4664 51.4669 42.614 53.3422C42.1756 54.3042 41.7981 55.0714 41.5302 55.595C41.5302 55.595 41.5181 55.6316 41.4815 55.6924C41.2502 56.143 41.1162 56.3866 41.1162 56.3866C41.1162 56.3866 41.1162 56.3866 41.1162 56.3987C40.9336 56.7275 40.7387 57.0319 40.6413 57.0319C40.5682 57.0319 40.4343 56.1552 40.6657 54.9618C41.1527 52.4411 42.3096 48.52 42.2974 48.3861C42.2974 48.313 42.5166 47.6311 41.5424 47.2779C40.5926 46.9248 40.2516 47.5093 40.1664 47.5093C40.0811 47.5093 40.0203 47.7163 40.0203 47.7163C40.0203 47.7163 41.0797 43.3081 37.9988 43.3081C36.0748 43.3081 33.4202 45.4148 32.105 47.3145C31.2769 47.765 29.5112 48.727 27.6238 49.7621C26.9053 50.164 26.1625 50.5658 25.4684 50.9433C25.4197 50.8946 25.371 50.8337 25.3222 50.785C21.596 46.803 14.7036 43.9901 14.9959 38.6442C15.1055 36.6959 15.7752 31.5814 28.2326 25.371C38.4859 20.3174 46.6447 21.7178 48.0573 24.823C50.0787 29.2555 43.6856 37.4874 33.0914 38.6808C29.0485 39.1313 26.9297 37.5726 26.3938 36.9881C25.8337 36.3792 25.7485 36.3427 25.5414 36.4645C25.2005 36.6471 25.4197 37.1951 25.5414 37.5117C25.858 38.3398 27.161 39.8011 29.3651 40.5195C31.3135 41.1527 36.0505 41.5059 41.786 39.2896C48.2034 36.8055 53.2205 29.9009 51.747 24.1167C50.2735 18.2472 40.5317 16.3111 31.3135 19.5867C25.8337 21.5351 19.8912 24.6038 15.6169 28.598C10.539 33.3471 9.73529 37.4752 10.0641 39.2044C11.2453 45.3417 19.7085 49.3359 23.0938 52.295C22.9233 52.3924 22.765 52.4776 22.6311 52.5507C20.9384 53.3909 14.4844 56.764 12.877 60.332C11.0504 64.3749 13.1693 67.2731 14.5697 67.6627C18.917 68.8683 23.3861 66.7007 25.785 63.1206C28.1839 59.5405 27.8917 54.8887 26.7835 52.7577C26.7713 52.7334 26.7592 52.709 26.7348 52.6847C27.1732 52.4289 27.6238 52.161 28.0621 51.9053C28.9267 51.3939 29.7791 50.9189 30.5098 50.5293C30.0957 51.6618 29.7913 53.0134 29.6452 54.9618C29.4625 57.2511 30.4002 60.2224 31.6301 61.3914C32.1781 61.9029 32.8235 61.915 33.2375 61.915C34.6744 61.915 35.3198 60.7217 36.0383 59.3091C36.915 57.5799 37.7066 55.5707 37.7066 55.5707C37.7066 55.5707 36.7202 61.0018 39.3992 61.0018C40.3734 61.0018 41.3598 59.7353 41.7981 59.0899C41.7981 59.1021 41.7981 59.1021 41.7981 59.1021C41.7981 59.1021 41.8225 59.0656 41.8712 58.9803C41.9686 58.822 42.0295 58.7246 42.0295 58.7246C42.0295 58.7246 42.0295 58.7124 42.0295 58.7002C42.4192 58.0183 43.296 56.4718 44.5989 53.9024C46.2794 50.5902 47.899 46.4499 47.899 46.4499C47.899 46.4499 48.0451 47.4606 48.5444 49.1411C48.8366 50.1274 49.4455 51.2112 49.9326 52.2584C49.5429 52.8064 49.2994 53.1109 49.2994 53.1109C49.2994 53.1109 49.2994 53.1109 49.3115 53.123C48.9949 53.5371 48.654 53.9876 48.2765 54.426C46.9491 56.0091 45.3661 57.8235 45.1469 58.3471C44.8912 58.9681 44.9521 59.4187 45.4392 59.784C45.7923 60.0519 46.4255 60.0885 47.0709 60.0519C48.2643 59.9667 49.1045 59.6744 49.5186 59.4918C50.164 59.2604 50.9189 58.9073 51.6252 58.3836C52.9282 57.4216 53.7197 56.0456 53.6467 54.2312C53.6101 53.2326 53.2813 52.2341 52.8795 51.2964C53.0013 51.126 53.1109 50.9555 53.2326 50.785C55.2906 47.7772 56.8858 44.4772 56.8858 44.4772C56.8858 44.4772 57.032 45.4879 57.5312 47.1683C57.7748 48.0207 58.274 48.9462 58.7124 49.8473C56.7762 51.4182 55.5829 53.2448 55.1566 54.4382C54.3895 56.6545 54.9862 57.653 56.1187 57.8844C56.6301 57.994 57.3607 57.7504 57.8965 57.519C58.5785 57.2999 59.3822 56.9224 60.1493 56.3622C61.4523 55.4002 62.7066 54.0607 62.6335 52.2463C62.597 51.4182 62.3778 50.6023 62.0734 49.8108C63.7173 49.1289 65.8362 48.7514 68.5395 49.068C74.3359 49.7499 75.4806 53.3666 75.2614 54.8887C75.0422 56.4109 73.8245 57.239 73.4226 57.4947C73.0208 57.7504 72.8868 57.8357 72.9233 58.0183C72.9721 58.2862 73.1669 58.274 73.5079 58.2253C73.9828 58.1401 76.5522 56.9954 76.6618 54.1946C76.8444 50.6145 73.4348 46.7056 67.407 46.7421ZM22.6919 61.8176C20.7679 63.9121 18.0889 64.7036 16.9321 64.0339C15.69 63.3154 16.1771 60.2224 18.5395 58.0061C19.9764 56.6545 21.8274 55.4002 23.0573 54.633C23.3373 54.4625 23.7514 54.219 24.2506 53.9146C24.3359 53.8659 24.3846 53.8415 24.3846 53.8415C24.482 53.7806 24.5794 53.7197 24.6768 53.6588C25.5414 56.8249 24.7134 59.6135 22.6919 61.8176ZM36.6959 52.295C36.0261 53.9267 34.6257 58.1036 33.7733 57.8722C33.0427 57.6773 32.5921 54.5112 33.6272 51.3817C34.1508 49.8108 35.2589 47.9355 35.9043 47.2049C36.9516 46.0358 38.1084 45.6462 38.3885 46.1211C38.7416 46.7421 37.1099 51.2721 36.6959 52.295ZM48.2521 57.8235C47.972 57.9696 47.7041 58.067 47.5824 57.994C47.4971 57.9452 47.7041 57.7504 47.7041 57.7504C47.7041 57.7504 49.1532 56.1917 49.7256 55.4854C50.0544 55.0714 50.444 54.5843 50.8581 54.0363C50.8581 54.085 50.8581 54.1459 50.8581 54.1946C50.8581 56.0578 49.0558 57.312 48.2521 57.8235ZM57.1659 55.7899C56.9589 55.6437 56.9954 55.1566 57.6895 53.6345C57.9574 53.0378 58.5907 52.0393 59.6744 51.0772C59.7962 51.4669 59.8814 51.8444 59.8693 52.1976C59.8571 54.5478 58.1766 55.4245 57.1659 55.7899Z" fill="#CD6799"/>
</g>
<defs>
<filter id="filter0_d" x="0" y="0.000244141" width="86" height="85.9998" filterUnits="userSpaceOnUse" color-interpolation-filters="sRGB">
<feColorMatrix type="matrix" values="0 0 0 0 0.192157 0 0 0 0 0.196078 0 0 0 0 0.192157 0 0 0 0.4 0"/>
<feBlend mode="normal" in="SourceGraphic" in2="effect1_dropShadow" result="shape"/>
</filter>
</defs>
</svg>
