<svg width="86" height="86" viewBox="0 0 86 86" fill="none" xmlns="http://www.w3.org/2000/svg">
<g>
<path d="M67 3H19C10.1634 3 3 10.1634 3 19V67C3 75.8366 10.1634 83 19 83H67C75.8366 83 83 75.8366 83 67V19C83 10.1634 75.8366 3 67 3Z" fill="#FEFEFE"/>
<path d="M75.2285 15.8187L60.9429 8.94037C59.2895 8.14421 57.3132 8.48005 56.0154 9.77777L9.24913 52.4177C7.99124 53.5647 7.99268 55.545 9.25225 56.6901L13.0723 60.1627C14.102 61.099 15.6528 61.1678 16.7616 60.3268L73.0789 17.6031C74.9683 16.1698 77.682 17.5174 77.682 19.8889V19.723C77.682 18.0584 76.7284 16.5409 75.2285 15.8187Z" fill="#0065A9"/>
<path d="M75.2285 70.1814L60.9429 77.0597C59.2895 77.8557 57.3132 77.5199 56.0154 76.2223L9.24913 33.5824C7.99124 32.4355 7.99268 30.4551 9.25225 29.31L13.0723 25.8372C14.102 24.9011 15.6528 24.8322 16.7616 25.6733L73.0789 68.3968C74.9683 69.8301 77.682 68.4827 77.682 66.111V66.277C77.682 67.9416 76.7284 69.4591 75.2285 70.1814Z" fill="#007ACC"/>
<path d="M60.9437 77.0609C59.2897 77.8563 57.3135 77.5202 56.0156 76.2224C57.6146 77.8214 60.349 76.6887 60.349 74.4273V11.5727C60.349 9.31125 57.6146 8.17869 56.0156 9.77779C57.3135 8.47995 59.2897 8.14364 60.9437 8.9391L75.2269 15.808C76.7279 16.5297 77.6823 18.0478 77.6823 19.7132V66.2871C77.6823 67.9525 76.7279 69.4705 75.2269 70.1923L60.9437 77.0609Z" fill="#1F9CF0"/>
<path style="mix-blend-mode:overlay" opacity="0.25" fill-rule="evenodd" clip-rule="evenodd" d="M57.4722 77.1935C58.5642 77.6187 59.8095 77.5916 60.9115 77.0613L75.186 70.1925C76.6862 69.4707 77.64 67.9527 77.64 66.2873V19.7134C77.64 18.048 76.6862 16.53 75.1863 15.8082L60.9115 8.93934C59.4652 8.24331 57.7723 8.4138 56.5026 9.33675C56.3214 9.4686 56.1486 9.61581 55.9864 9.77804L28.6595 34.709L16.7564 25.6736C15.6484 24.8325 14.0985 24.9014 13.0694 25.8375L9.25168 29.3102C7.99287 30.4553 7.99143 32.4357 9.24856 33.5826L19.5713 43.0003L9.24856 52.4179C7.99143 53.5649 7.99287 55.5453 9.25168 56.6903L13.0694 60.163C14.0985 61.0992 15.6484 61.168 16.7564 60.3271L28.6595 51.2915L55.9864 76.2226C56.4186 76.6551 56.9264 76.9809 57.4722 77.1935ZM60.3173 27.2608L39.5823 43.0003L60.3173 58.7397V27.2608Z" fill="url(#paint0_linear)"/>
</g>
<defs>
<linearGradient id="paint0_linear" x1="42.9734" y1="8.51233" x2="42.9734" y2="77.4882" gradientUnits="userSpaceOnUse">
<stop stop-color="white"/>
<stop offset="1" stop-color="white" stop-opacity="0"/>
</linearGradient>
</defs>
</svg>
