<svg width="86" height="86" viewBox="0 0 86 86" fill="none" xmlns="http://www.w3.org/2000/svg">
<g>
<path d="M67 3H19C10.1634 3 3 10.1634 3 19V67C3 75.8366 10.1634 83 19 83H67C75.8366 83 83 75.8366 83 67V19C83 10.1634 75.8366 3 67 3Z" fill="white"/>
<path d="M28.1438 58.9213C23.7758 58.9213 20.3738 57.7313 17.9378 55.3513C15.5298 52.9713 14.3258 49.5973 14.3258 45.2293V28.9333H22.6418V44.9773C22.6418 49.6813 24.5038 52.0333 28.2278 52.0333C31.9238 52.0333 33.7718 49.6813 33.7718 44.9773V28.9333H41.9618V45.2293C41.9618 49.5973 40.7438 52.9713 38.3078 55.3513C35.8998 57.7313 32.5118 58.9213 28.1438 58.9213Z" fill="#F4B93A"/>
<path d="M64.8994 58.3333L58.8094 49.2193L52.8034 58.3333H43.3114L54.0214 43.4653L43.7734 28.9333H53.1394L59.0194 37.4173L64.8154 28.9333H73.8034L63.5554 43.1293L74.4754 58.3333H64.8994Z" fill="#252422"/>
</g>
</svg>
