<svg width="86" height="86" viewBox="0 0 86 86" fill="none" xmlns="http://www.w3.org/2000/svg">
<g>
<path d="M67 3H19C10.1634 3 3 10.1634 3 19V67C3 75.8366 10.1634 83 19 83H67C75.8366 83 83 75.8366 83 67V19C83 10.1634 75.8366 3 67 3Z" fill="white"/>
<path d="M79.12 40.0467C79.8978 40.8281 80.3347 41.8878 80.3347 42.9927C80.3347 44.0976 79.8978 45.1573 79.12 45.9386L73.2543 51.8306C72.8685 52.2175 72.5624 52.677 72.3535 53.1828C72.1447 53.6886 72.0371 54.2309 72.037 54.7785V59.66C72.037 62.9752 70.7259 66.1546 68.3921 68.4988C66.0583 70.843 62.893 72.16 59.5925 72.16H53.3703C52.8202 72.16 52.2927 71.9405 51.9037 71.5498C51.5147 71.1591 51.2962 70.6292 51.2962 70.0767V65.91C51.2962 65.3575 51.5147 64.8276 51.9037 64.4369C52.2927 64.0462 52.8202 63.8267 53.3703 63.8267H59.5925C60.6927 63.8267 61.7478 63.3877 62.5257 62.6063C63.3037 61.8249 63.7407 60.7651 63.7407 59.66V54.7798C63.7408 53.138 64.0629 51.5123 64.6885 49.9955C65.3142 48.4788 66.2312 47.1007 67.3872 45.9399L70.3207 42.9933L67.3885 40.048C66.232 38.8871 65.3145 37.5086 64.6886 35.9914C64.0627 34.4742 63.7406 32.8479 63.7407 31.2056V26.3267C63.7407 25.2216 63.3037 24.1618 62.5257 23.3804C61.7478 22.599 60.6927 22.16 59.5925 22.16H53.3703C52.8202 22.16 52.2927 21.9405 51.9037 21.5498C51.5147 21.1591 51.2962 20.6292 51.2962 20.0767V15.91C51.2962 15.3575 51.5147 14.8276 51.9037 14.4369C52.2927 14.0462 52.8202 13.8267 53.3703 13.8267H59.5925C62.893 13.8267 66.0583 15.1436 68.3921 17.4878C70.7259 19.832 72.037 23.0115 72.037 26.3267V31.2069C72.0368 31.7546 72.144 32.297 72.3527 32.8031C72.5613 33.3091 72.8673 33.7689 73.253 34.1561L79.1187 40.0467H79.12Z" fill="#252422"/>
<path d="M32.6297 13.8267H26.4074C23.107 13.8267 19.9417 15.1436 17.6079 17.4878C15.2741 19.832 13.963 23.0115 13.963 26.3267V31.2069C13.9618 32.3128 13.5246 33.3732 12.7471 34.1561L6.88262 40.0467C6.10488 40.8281 5.66797 41.8878 5.66797 42.9927C5.66797 44.0976 6.10488 45.1573 6.88262 45.9386L12.7484 51.8306C13.526 52.6128 13.9628 53.673 13.963 54.7785V59.66C13.963 62.9752 15.2741 66.1546 17.6079 68.4988C19.9417 70.843 23.107 72.16 26.4074 72.16H32.6297C33.1797 72.16 33.7073 71.9405 34.0962 71.5498C34.4852 71.1591 34.7037 70.6292 34.7037 70.0767V65.91C34.7037 65.3575 34.4852 64.8276 34.0962 64.4369C33.7073 64.0462 33.1797 63.8267 32.6297 63.8267H26.4074C25.3073 63.8267 24.2522 63.3877 23.4743 62.6063C22.6963 61.8249 22.2593 60.7651 22.2593 59.66V54.7798C22.2592 53.138 21.9371 51.5123 21.3115 49.9955C20.6858 48.4788 19.7688 47.1007 18.6128 45.9399L15.6819 42.9933L18.6154 40.0467C19.7709 38.8858 20.6874 37.5076 21.3127 35.9908C21.9379 34.4741 22.2595 32.8485 22.2593 31.2069V26.3267C22.2593 25.2216 22.6963 24.1618 23.4743 23.3804C24.2522 22.599 25.3073 22.16 26.4074 22.16H32.6297C33.1797 22.16 33.7073 21.9405 34.0962 21.5498C34.4852 21.1591 34.7037 20.6292 34.7037 20.0767V15.91C34.7037 15.3575 34.4852 14.8276 34.0962 14.4369C33.7073 14.0462 33.1797 13.8267 32.6297 13.8267V13.8267Z" fill="#F4B93A"/>
</g>
</svg>
